<svg width="633" height="651" viewBox="0 0 633 651" fill="none" xmlns="http://www.w3.org/2000/svg">
<path d="M315.41 393.398C382.233 433.144 468.474 411.109 508.054 344.196C547.626 277.27 525.532 190.802 458.723 151.048C391.886 111.309 305.637 133.331 266.065 200.257C226.494 267.184 248.587 353.651 315.396 393.406L315.41 393.398Z" fill="#BADEFF"/>
<path d="M318.795 387.677C362.385 413.612 414.657 411.934 455.392 387.829C462.603 383.571 469.425 378.609 475.777 372.99C483.732 365.976 490.944 357.882 497.187 348.825C496.385 348.684 495.583 348.542 494.754 348.418C491.719 348.172 488.743 347.872 485.818 347.505C477.854 346.557 469.512 344.952 460.797 342.67C449.167 339.609 439.159 335.915 430.738 331.592C422.407 327.325 416.082 322.636 411.78 317.551C407.483 312.445 405.523 307.159 405.943 301.704C406.26 297.509 407.826 294.255 410.64 291.942C413.535 289.672 417.115 288.019 421.419 287.017C425.701 286.009 430.19 285.373 434.908 285.116C439.593 284.897 443.935 284.811 447.903 284.805C454.222 284.795 459.879 284.724 464.883 284.607C469.949 284.47 473.969 283.972 476.921 283.105C479.87 282.204 481.429 280.614 481.603 278.314C481.741 276.441 481.059 274.55 479.572 272.666C478.085 270.781 475.564 268.952 472.032 267.182C468.577 265.42 463.947 263.78 458.118 262.258C455.881 261.658 453.538 260.975 451.138 260.289C450.538 260.118 449.938 259.947 449.308 259.756C446.184 259.454 443.011 259.071 439.753 258.61C434.208 257.801 428.525 256.762 422.757 255.462C409.634 252.548 398.469 248.947 389.255 244.68C379.954 240.392 372.819 235.64 367.858 230.439C362.902 225.215 360.326 219.823 360.119 214.212C359.929 209.237 361.403 205.467 364.569 202.885C367.725 200.254 372.289 198.374 378.315 197.269C384.238 196.115 391.412 195.329 399.862 194.95C406.803 194.6 412.621 194.247 417.286 193.874C421.873 193.493 425.32 192.806 427.627 191.815C429.852 190.78 430.925 189.116 430.829 186.887C430.754 184.996 429.89 183.14 428.228 181.362C426.577 179.54 424.184 177.892 421.028 176.41C417.877 174.907 414.082 173.646 409.654 172.677C403.34 171.264 397.147 170.387 391.08 170.023C389.638 169.919 388.156 169.839 386.625 169.771C383.759 169.866 380.938 169.914 378.134 169.898C370.557 169.896 362.454 169.235 353.83 167.894C342.331 166.117 332.147 163.471 323.311 159.953C321.262 159.147 319.323 158.311 317.465 157.427C299.245 168.483 283.416 184.047 271.802 203.698C234.107 267.459 255.149 349.842 318.806 387.726L318.795 387.677ZM338.251 147.545C341.493 148.864 345.317 149.868 349.714 150.542C353.625 151.142 357.457 151.55 361.194 151.74C368.732 151.526 376.167 151.355 383.147 151.922C390.961 152.5 399.197 153.745 407.891 155.689C419.481 158.258 429.58 161.584 438.183 165.63C446.726 169.639 453.339 174.136 458.068 179.165C462.788 184.181 465.269 189.538 465.465 195.192C465.624 199.504 464.466 202.916 462.002 205.442C459.434 207.92 456.138 209.769 452.121 211.004C448.091 212.247 443.797 213.114 439.297 213.609C434.78 214.076 430.581 214.37 426.755 214.549C420.65 214.853 415.172 215.221 410.337 215.587C405.452 215.963 401.62 216.681 398.865 217.722C396.119 218.777 394.774 220.477 394.876 222.869C394.94 224.803 395.815 226.708 397.477 228.578C399.14 230.448 401.768 232.212 405.384 233.876C408.913 235.519 413.578 236.972 419.368 238.278C420.727 238.58 422.075 238.925 423.437 239.262C428.587 239.812 433.91 240.59 439.402 241.615C445.016 242.66 450.727 243.958 456.548 245.467C469.699 248.916 480.786 252.934 489.807 257.52C498.893 262.123 505.696 267.057 510.226 272.336C514.747 277.601 516.813 282.971 516.398 288.404C516.046 293.21 514.09 296.793 510.567 299.149C507.024 301.534 502.118 303.123 495.827 303.91C489.603 304.748 482.122 305.148 473.393 305.125C466.218 305.119 460.207 305.182 455.346 305.323C450.586 305.478 446.955 305.981 444.48 306.816C442.081 307.716 440.787 309.256 440.631 311.434C440.504 313.264 441.181 315.085 442.676 316.891C444.181 318.745 446.458 320.446 449.545 322.025C452.613 323.634 456.376 325.024 460.826 326.183C464.788 327.232 468.71 328.064 472.589 328.702C480.563 329.423 488.399 330.191 495.593 331.568C499.056 332.218 502.585 332.977 506.16 333.872C538.477 271.193 516.703 193.293 455.324 156.777C418.256 134.73 374.899 132.629 337.732 147.325C337.886 147.398 338.062 147.475 338.243 147.532L338.251 147.545Z" fill="#BADEFF"/>
<path d="M211.082 552.412L464.459 398.917L310.996 144.765L57.6194 298.26L211.082 552.412Z" fill="#BADEFF"/>
<path d="M282.355 382.888C349.216 422.577 435.52 400.551 475.139 333.708C514.75 266.851 492.658 180.487 425.81 140.791C358.936 101.111 272.624 123.123 233.013 189.98C193.403 256.837 215.494 343.2 282.342 382.897L282.355 382.888ZM364.009 245.53C372.908 251.237 375.491 263.084 369.803 271.995C364.098 280.879 352.267 283.467 343.369 277.76C334.47 272.053 331.887 260.206 337.575 251.295C343.28 242.411 355.124 239.815 364.009 245.53Z" fill="#E4E4E5"/>
<path d="M285.744 377.174C329.359 403.071 381.666 401.385 422.433 377.3C429.649 373.046 436.477 368.088 442.835 362.474C450.797 355.467 458.014 347.381 464.264 338.333C463.461 338.192 462.658 338.052 461.828 337.927C458.792 337.682 455.814 337.384 452.887 337.017C444.918 336.071 436.57 334.47 427.85 332.192C416.213 329.137 406.199 325.449 397.773 321.133C389.437 316.872 383.109 312.19 378.805 307.112C374.506 302.012 372.545 296.733 372.967 291.283C373.285 287.094 374.852 283.843 377.669 281.532C380.566 279.264 384.149 277.613 388.456 276.61C392.741 275.603 397.233 274.967 401.954 274.71C406.642 274.49 410.988 274.403 414.958 274.396C421.282 274.385 426.943 274.314 431.95 274.195C437.019 274.058 441.042 273.559 443.996 272.694C446.948 271.793 448.508 270.204 448.683 267.907C448.821 266.036 448.138 264.147 446.651 262.265C445.163 260.383 442.641 258.556 439.106 256.789C435.65 255.03 431.017 253.393 425.184 251.873C422.946 251.275 420.601 250.593 418.2 249.909C417.599 249.738 416.999 249.566 416.369 249.377C413.243 249.075 410.067 248.693 406.808 248.233C401.259 247.426 395.572 246.39 389.8 245.092C376.67 242.184 365.497 238.589 356.278 234.329C346.972 230.047 339.833 225.303 334.869 220.108C329.911 214.891 327.334 209.505 327.128 203.901C326.938 198.932 328.415 195.166 331.583 192.586C334.741 189.958 339.31 188.079 345.339 186.974C351.266 185.821 358.445 185.034 366.901 184.654C373.847 184.303 379.669 183.95 384.338 183.576C388.928 183.194 392.377 182.508 394.685 181.517C396.912 180.484 397.986 178.821 397.891 176.595C397.816 174.706 396.952 172.852 395.29 171.076C393.637 169.257 391.243 167.611 388.085 166.132C384.932 164.631 381.135 163.372 376.704 162.405C370.386 160.995 364.189 160.12 358.118 159.757C356.675 159.654 355.192 159.575 353.66 159.506C350.792 159.602 347.97 159.651 345.163 159.635C337.581 159.634 329.473 158.976 320.843 157.638C309.337 155.865 299.147 153.224 290.306 149.711C288.255 148.907 286.315 148.073 284.456 147.189C266.221 158.236 250.379 173.786 238.753 193.416C201.021 257.111 222.062 339.394 285.755 377.222L285.744 377.174ZM363.543 246.31C372.046 251.759 374.492 263.045 369.058 271.525C363.63 279.984 352.355 282.456 343.874 277.013C335.392 271.57 332.946 260.284 338.366 251.812C343.794 243.353 355.083 240.872 363.551 246.324L363.543 246.31ZM305.258 137.316C308.502 138.632 312.328 139.634 316.728 140.307C320.642 140.905 324.476 141.312 328.215 141.501C335.758 141.286 343.199 141.114 350.184 141.679C358.003 142.255 366.243 143.497 374.943 145.437C386.541 148.001 396.645 151.321 405.254 155.361C413.802 159.364 420.419 163.854 425.149 168.876C429.872 173.885 432.354 179.236 432.549 184.884C432.707 189.191 431.548 192.599 429.081 195.123C426.511 197.598 423.213 199.446 419.193 200.68C415.16 201.922 410.863 202.789 406.36 203.284C401.84 203.752 397.638 204.046 393.809 204.225C387.7 204.53 382.218 204.899 377.379 205.265C372.492 205.642 368.656 206.359 365.9 207.4C363.152 208.454 361.805 210.153 361.907 212.542C361.971 214.473 362.846 216.376 364.509 218.244C366.172 220.111 368.802 221.873 372.42 223.535C375.951 225.175 380.619 226.625 386.413 227.929C387.772 228.23 389.122 228.574 390.484 228.911C395.637 229.459 400.964 230.235 406.46 231.258C412.077 232.3 417.792 233.596 423.616 235.102C436.776 238.545 447.869 242.556 456.895 247.135C465.986 251.731 472.794 256.658 477.326 261.93C481.849 267.188 483.915 272.551 483.499 277.979C483.145 282.779 481.188 286.358 477.661 288.712C474.116 291.095 469.207 292.683 462.911 293.47C456.683 294.308 449.197 294.71 440.461 294.688C433.282 294.683 427.267 294.748 422.403 294.89C417.639 295.045 414.005 295.548 411.529 296.383C409.128 297.282 407.833 298.821 407.676 300.997C407.549 302.824 408.226 304.643 409.721 306.446C411.228 308.298 413.506 309.996 416.594 311.573C419.664 313.179 423.429 314.568 427.882 315.724C431.846 316.771 435.772 317.602 439.653 318.239C447.632 318.957 455.474 319.722 462.672 321.097C466.137 321.746 469.668 322.502 473.245 323.396C505.596 260.783 483.822 182.977 422.408 146.515C385.319 124.5 341.934 122.41 304.739 137.096C304.893 137.168 305.069 137.246 305.25 137.302L305.258 137.316Z" fill="white"/>
<g style="mix-blend-mode:multiply">
<path d="M177.927 541.739L431.504 388.373L277.985 134.543L24.4083 287.909L177.927 541.739Z" fill="white"/>
</g>
<g style="mix-blend-mode:multiply">
<path d="M177.927 541.739L431.504 388.373L277.985 134.543L24.4083 287.909L177.927 541.739Z" fill="#349CFD"/>
</g>
</svg>
