<svg width="527" height="527" viewBox="0 0 527 527" fill="none" xmlns="http://www.w3.org/2000/svg">
<g clip-path="url(#clip0_172_439)">
<path d="M516.076 344.005C550.845 213.718 474.585 79.6183 345.746 44.4852C216.906 9.3522 84.2758 86.4899 49.507 216.777C14.7383 347.064 90.9977 481.164 219.837 516.297C348.677 551.43 481.307 474.292 516.076 344.005Z" fill="#710606"/>
<path d="M403.307 410.227C496.044 318.032 497.325 167.289 406.167 73.5326C315.01 -20.2241 165.935 -21.4905 73.1979 70.704C-19.5389 162.899 -20.8194 313.642 70.3378 407.398C161.495 501.155 310.57 502.421 403.307 410.227Z" fill="white"/>
<path opacity="0.55" d="M229.933 416.037C226.203 416.005 222.434 415.851 218.667 415.576C122.873 408.557 50.5984 324.036 57.5574 227.17C64.5566 130.304 148.517 57.3291 243.91 64.2227C339.704 71.2413 411.979 155.763 405.02 252.629C398.333 345.686 320.886 416.809 229.892 416.036L229.933 416.037Z" fill="#8891AA"/>
<path opacity="0.55" d="M364.904 168.786L472.031 272.137C460.827 377.687 384.453 454.7 273.798 478.62L250.881 442.778L255.476 378.781L364.904 168.827L364.904 168.786Z" fill="#8891AA"/>
<path d="M239.402 387.243L236.49 427.853" stroke="#EFEFEF" stroke-width="40" stroke-miterlimit="10" stroke-linecap="round"/>
<path d="M278.741 367.891C348.635 341.386 384.057 262.609 357.858 191.939C331.659 121.268 253.761 85.4652 183.867 111.97C113.974 138.475 78.5519 217.252 104.751 287.922C130.949 358.593 208.848 394.396 278.741 367.891Z" fill="#68350B"/>
<path d="M349.77 280.163C355.633 223.111 314.648 172.064 258.227 166.146C201.807 160.229 151.317 201.682 145.455 258.735C139.592 315.787 180.578 366.834 236.998 372.751C293.418 378.668 343.908 337.215 349.77 280.163Z" fill="#A54726"/>
<path d="M230.134 392.314C226.886 392.287 223.638 392.178 220.392 391.907C137.504 385.85 74.9589 312.685 80.9649 228.869C87.011 145.054 159.658 81.8783 242.225 87.8923C325.113 93.9497 387.658 167.114 381.652 250.93C375.835 331.463 308.856 392.983 230.134 392.314ZM232.255 119.035C169.815 118.504 116.661 167.327 112.068 231.161C107.292 297.63 156.891 355.639 222.624 360.456C288.157 365.23 345.734 315.107 350.509 248.638C355.285 182.169 305.686 124.16 239.953 119.343C237.347 119.159 234.782 119.056 232.215 119.034L232.255 119.035Z" fill="white"/>
<path d="M165.485 296.319L165.485 296.318C166.739 294.367 167.712 292.103 168.408 289.532C169.35 286.051 169.574 282.846 169.059 279.925C168.562 276.988 167.325 274.469 165.346 272.384C163.376 270.297 160.678 268.804 157.284 267.886C153.74 266.926 150.555 266.833 147.749 267.645L147.748 267.645C144.968 268.459 142.633 270.02 140.752 272.318C138.879 274.605 137.488 277.459 136.566 280.865C135.871 283.434 135.553 285.873 135.62 288.18L135.621 288.183C135.704 290.498 136.191 292.613 137.091 294.522L137.092 294.524C138.01 296.444 139.36 298.092 141.13 299.468L141.132 299.468C142.923 300.852 145.154 301.898 147.809 302.617C150.39 303.315 152.791 303.523 155.005 303.222C157.211 302.924 159.197 302.187 160.953 301.009C162.723 299.824 164.233 298.258 165.485 296.319ZM155.519 298.429L155.517 298.43C153.68 299.049 151.504 299.039 148.964 298.351C146.441 297.668 144.547 296.578 143.241 295.105C141.943 293.629 141.164 291.82 140.913 289.656C140.66 287.478 140.895 285.024 141.636 282.286C142.381 279.532 143.414 277.304 144.72 275.582C146.039 273.86 147.635 272.709 149.511 272.107C151.378 271.508 153.571 271.53 156.111 272.218C159.856 273.232 162.206 275.112 163.293 277.811L163.294 277.814C164.419 280.551 164.455 283.985 163.325 288.156C162.584 290.896 161.556 293.136 160.254 294.894C158.961 296.639 157.384 297.809 155.519 298.429Z" fill="white" stroke="white"/>
<path d="M182.642 324.79L182.642 324.79C183.897 322.838 184.869 320.574 185.565 318.004C186.507 314.522 186.731 311.317 186.216 308.397C185.719 305.459 184.482 302.941 182.504 300.856C180.534 298.768 177.835 297.276 174.441 296.357C170.897 295.398 167.712 295.305 164.907 296.116L164.905 296.117C162.125 296.93 159.79 298.492 157.909 300.789C156.037 303.076 154.645 305.93 153.723 309.337C153.028 311.906 152.71 314.345 152.778 316.651L152.778 316.655C152.861 318.969 153.349 321.084 154.248 322.993L154.249 322.996C155.168 324.915 156.517 326.563 158.288 327.939L158.289 327.94C160.08 329.324 162.311 330.369 164.967 331.088C167.547 331.786 169.948 331.994 172.162 331.694C174.369 331.395 176.354 330.658 178.11 329.48C179.88 328.295 181.39 326.729 182.642 324.79ZM172.676 326.9L172.674 326.901C170.837 327.52 168.661 327.51 166.121 326.823C163.598 326.14 161.704 325.049 160.398 323.577C159.1 322.101 158.321 320.291 158.07 318.127C157.817 315.95 158.052 313.495 158.793 310.757C159.539 308.004 160.571 305.775 161.878 304.054C163.196 302.332 164.792 301.181 166.669 300.579C168.535 299.98 170.728 300.002 173.269 300.69C177.013 301.703 179.363 303.584 180.45 306.282L180.451 306.286C181.576 309.023 181.612 312.456 180.483 316.628C179.741 319.367 178.714 321.608 177.411 323.365C176.118 325.11 174.541 326.281 172.676 326.9Z" fill="white" stroke="white"/>
<path d="M158.43 267.294L158.431 267.295C160.006 268.998 161.954 270.506 164.269 271.824C167.403 273.608 170.45 274.628 173.406 274.861C176.374 275.116 179.122 274.549 181.636 273.156C184.151 271.772 186.272 269.533 188.011 266.477C189.828 263.286 190.716 260.227 190.633 257.307L190.633 257.306C190.542 254.41 189.615 251.759 187.862 249.362C186.117 246.976 183.702 244.914 180.635 243.169C178.322 241.852 176.041 240.934 173.791 240.421L173.788 240.42C171.526 239.921 169.356 239.863 167.283 240.256L167.28 240.256C165.192 240.665 163.258 241.558 161.483 242.928L161.482 242.929C159.693 244.316 158.122 246.214 156.761 248.605C155.438 250.928 154.636 253.201 154.372 255.419C154.109 257.63 154.325 259.737 155.025 261.732C155.729 263.742 156.867 265.597 158.43 267.294ZM158.884 257.118L158.884 257.116C158.744 255.182 159.299 253.078 160.601 250.791C161.894 248.519 163.425 246.959 165.177 246.064C166.931 245.177 168.879 244.876 171.036 245.175C173.208 245.475 175.525 246.318 177.99 247.721C180.469 249.132 182.368 250.69 183.707 252.386C185.044 254.094 185.759 255.928 185.871 257.895C185.984 259.852 185.413 261.969 184.111 264.257C182.192 267.628 179.782 269.433 176.897 269.808L176.894 269.809C173.962 270.212 170.629 269.387 166.873 267.248C164.407 265.845 162.495 264.288 161.12 262.587C159.755 260.898 159.017 259.078 158.884 257.118Z" fill="white" stroke="white"/>
<path d="M152.386 269.513L152.385 269.513C151.552 270.805 150.545 271.852 149.362 272.646L152.386 269.513ZM152.386 269.513C153.22 268.213 153.866 266.709 154.327 265.005C154.951 262.699 155.102 260.567 154.76 258.619C154.429 256.657 153.603 254.971 152.281 253.576C150.962 252.177 149.16 251.183 146.91 250.574C144.562 249.938 142.439 249.874 140.559 250.419L140.558 250.419C138.699 250.964 137.137 252.011 135.881 253.547C134.633 255.072 133.71 256.971 133.099 259.228C132.638 260.929 132.427 262.549 132.471 264.084L132.471 264.084L132.471 264.087C132.526 265.629 132.85 267.041 133.45 268.318L133.452 268.321C134.066 269.608 134.969 270.711 136.151 271.63L136.152 271.631M152.386 269.513L136.152 271.631M136.152 271.631C137.349 272.556 138.835 273.252 140.594 273.728C142.305 274.191 143.905 274.33 145.385 274.129C146.857 273.929 148.186 273.435 149.361 272.646L136.152 271.631ZM145.645 270.647L145.643 270.647C144.478 271.041 143.086 271.039 141.442 270.594C139.81 270.152 138.6 269.45 137.771 268.515C136.945 267.574 136.447 266.419 136.286 265.028C136.124 263.624 136.275 262.034 136.758 260.25C137.243 258.456 137.913 257.013 138.755 255.903C139.601 254.797 140.62 254.062 141.816 253.678C143.001 253.297 144.405 253.307 146.05 253.752C148.471 254.407 149.96 255.614 150.647 257.323L150.647 257.323L150.648 257.327C151.367 259.078 151.396 261.293 150.66 264.013C150.177 265.797 149.509 267.249 148.67 268.383C147.84 269.504 146.833 270.251 145.645 270.647Z" fill="white" stroke="white"/>
<path d="M213.929 312.539L213.93 312.539C215.184 310.588 216.157 308.323 216.852 305.753C217.795 302.272 218.019 299.066 217.504 296.146C217.007 293.208 215.77 290.69 213.791 288.605C211.821 286.517 209.123 285.025 205.729 284.106C202.185 283.147 199 283.054 196.194 283.865L196.193 283.866C193.412 284.679 191.078 286.241 189.196 288.538C187.324 290.825 185.933 293.679 185.011 297.086C184.315 299.655 183.998 302.094 184.065 304.4L184.065 304.404C184.148 306.718 184.636 308.834 185.535 310.742L185.537 310.745C186.455 312.664 187.804 314.312 189.575 315.688L189.576 315.689C191.368 317.073 193.599 318.118 196.254 318.837C198.835 319.536 201.236 319.743 203.45 319.443C205.656 319.144 207.641 318.407 209.397 317.23C211.168 316.044 212.678 314.478 213.929 312.539ZM203.964 314.649L203.962 314.65C202.125 315.269 199.949 315.259 197.409 314.572C194.885 313.889 192.992 312.798 191.686 311.326C190.388 309.85 189.609 308.04 189.357 305.876C189.105 303.699 189.34 301.244 190.081 298.506C190.826 295.753 191.859 293.524 193.165 291.803C194.484 290.081 196.08 288.93 197.956 288.328C199.823 287.729 202.015 287.751 204.556 288.439C208.3 289.452 210.651 291.333 211.738 294.031L211.739 294.035C212.864 296.772 212.899 300.205 211.77 304.377C211.029 307.116 210.001 309.357 208.699 311.114C207.406 312.859 205.828 314.03 203.964 314.649Z" fill="white" stroke="white"/>
<path d="M231.015 292.867L231.015 292.868C230.181 294.16 229.174 295.207 227.991 296L231.015 292.867ZM231.015 292.867C231.85 291.568 232.495 290.064 232.956 288.36C233.58 286.054 233.732 283.922 233.389 281.973C233.058 280.012 232.232 278.326 230.91 276.931C229.591 275.531 227.79 274.538 225.539 273.928C223.191 273.293 221.068 273.228 219.189 273.773L219.187 273.774C217.328 274.319 215.766 275.365 214.51 276.901C213.262 278.427 212.339 280.326 211.728 282.582C211.267 284.284 211.056 285.904 211.1 287.438L211.1 287.438L211.1 287.442C211.155 288.983 211.479 290.396 212.08 291.673L212.081 291.676C212.696 292.962 213.598 294.066 214.78 294.985L214.781 294.986M231.015 292.867L214.781 294.986M214.781 294.986C215.978 295.911 217.464 296.606 219.223 297.083C220.935 297.546 222.534 297.685 224.014 297.484C225.487 297.283 226.815 296.79 227.991 296L214.781 294.986ZM224.274 294.001L224.272 294.002C223.108 294.395 221.716 294.394 220.072 293.949C218.439 293.507 217.23 292.805 216.401 291.87C215.574 290.929 215.076 289.773 214.915 288.383C214.753 286.979 214.904 285.388 215.387 283.605C215.873 281.811 216.543 280.368 217.384 279.258C218.23 278.151 219.25 277.417 220.445 277.033C221.631 276.652 223.034 276.661 224.679 277.106C227.1 277.762 228.589 278.968 229.276 280.678L229.276 280.678L229.278 280.681C229.996 282.433 230.025 284.648 229.289 287.367C228.806 289.152 228.139 290.604 227.299 291.738C226.469 292.859 225.462 293.606 224.274 294.001Z" fill="white" stroke="white"/>
<path d="M200.577 336.428L200.576 336.428C199.743 337.72 198.736 338.767 197.553 339.561L200.577 336.428ZM200.577 336.428C201.411 335.128 202.057 333.624 202.518 331.92C203.142 329.614 203.293 327.482 202.951 325.534C202.62 323.572 201.794 321.886 200.472 320.491C199.153 319.092 197.351 318.098 195.101 317.489C192.753 316.853 190.63 316.789 188.75 317.334L188.749 317.334C186.89 317.879 185.328 318.926 184.072 320.462C182.824 321.987 181.901 323.886 181.29 326.143C180.829 327.844 180.618 329.464 180.662 330.999L180.662 330.999L180.662 331.002C180.717 332.544 181.041 333.957 181.641 335.234L181.643 335.236C182.257 336.523 183.16 337.626 184.342 338.545L184.343 338.546M200.577 336.428L184.343 338.546M184.343 338.546C185.54 339.471 187.026 340.167 188.785 340.643C190.496 341.106 192.096 341.245 193.576 341.044C195.048 340.844 196.377 340.35 197.552 339.561L184.343 338.546ZM193.836 337.562L193.834 337.562C192.669 337.956 191.277 337.954 189.633 337.509C188.001 337.067 186.791 336.365 185.962 335.43C185.136 334.489 184.638 333.334 184.477 331.943C184.315 330.539 184.466 328.949 184.949 327.165C185.434 325.371 186.104 323.928 186.946 322.818C187.792 321.712 188.811 320.977 190.007 320.593C191.192 320.212 192.596 320.222 194.241 320.667C196.662 321.322 198.151 322.529 198.838 324.238L198.838 324.238L198.839 324.242C199.558 325.993 199.587 328.208 198.851 330.928C198.368 332.712 197.7 334.164 196.861 335.298C196.031 336.419 195.024 337.166 193.836 337.562Z" fill="white" stroke="white"/>
<path d="M223.642 335.419L223.641 335.42C222.808 336.712 221.8 337.759 220.617 338.552L223.642 335.419ZM223.642 335.419C224.476 334.12 225.121 332.615 225.582 330.911C226.207 328.605 226.358 326.473 226.015 324.525C225.685 322.563 224.859 320.877 223.536 319.482C222.217 318.083 220.416 317.089 218.166 316.48C215.818 315.845 213.695 315.78 211.815 316.325L211.814 316.325C209.954 316.87 208.393 317.917 207.136 319.453C205.889 320.978 204.965 322.877 204.355 325.134C203.894 326.836 203.682 328.455 203.726 329.99L203.726 329.99L203.727 329.993C203.781 331.535 204.105 332.948 204.706 334.225L204.707 334.227C205.322 335.514 206.225 336.617 207.406 337.536L207.408 337.537M223.642 335.419L207.408 337.537M207.408 337.537C208.605 338.463 210.09 339.158 211.85 339.634C213.561 340.097 215.16 340.236 216.641 340.035C218.113 339.835 219.441 339.342 220.617 338.552L207.408 337.537ZM216.901 336.553L216.899 336.553C215.734 336.947 214.342 336.945 212.698 336.5C211.066 336.059 209.856 335.357 209.027 334.421C208.201 333.48 207.703 332.325 207.542 330.935C207.38 329.53 207.531 327.94 208.014 326.156C208.499 324.362 209.169 322.919 210.01 321.81C210.857 320.703 211.876 319.969 213.071 319.584C214.257 319.203 215.661 319.213 217.305 319.658C219.726 320.313 221.216 321.52 221.903 323.23L221.903 323.23L221.904 323.233C222.622 324.984 222.652 327.199 221.915 329.919C221.432 331.704 220.765 333.155 219.926 334.29C219.096 335.411 218.088 336.157 216.901 336.553Z" fill="white" stroke="white"/>
<path d="M244.149 296.591L244.148 296.591C242.118 295.426 239.784 294.528 237.152 293.894C233.588 293.034 230.337 292.849 227.408 293.357C224.461 293.849 221.966 295.034 219.94 296.922C217.909 298.804 216.516 301.372 215.739 304.592C214.929 307.954 214.982 310.971 215.937 313.62L215.938 313.622C216.893 316.245 218.584 318.434 220.994 320.186C223.392 321.93 226.342 323.217 229.83 324.058C232.46 324.692 234.941 324.972 237.27 324.89L237.273 324.89C239.609 324.793 241.726 324.317 243.617 323.454L243.62 323.452C245.522 322.571 247.133 321.283 248.45 319.595L248.451 319.594C249.776 317.886 250.735 315.764 251.343 313.246C251.933 310.798 252.033 308.522 251.625 306.427C251.218 304.341 250.378 302.47 249.103 300.823C247.821 299.163 246.166 297.754 244.149 296.591ZM246.763 306.045L246.764 306.047C247.472 307.766 247.563 309.805 246.986 312.196C246.414 314.57 245.402 316.354 243.979 317.591C242.548 318.822 240.752 319.574 238.564 319.829C236.364 320.086 233.861 319.883 231.049 319.205C228.22 318.523 225.909 317.565 224.1 316.343C222.289 315.109 221.05 313.611 220.356 311.852C219.667 310.106 219.588 308.05 220.165 305.659C221.013 302.141 222.797 299.918 225.478 298.872L225.482 298.871C228.207 297.786 231.692 297.725 235.979 298.758C238.792 299.437 241.115 300.39 242.961 301.608C244.794 302.817 246.052 304.298 246.763 306.045Z" fill="white" stroke="white"/>
<path d="M215.794 278.857L215.795 278.856C217.049 276.905 218.022 274.641 218.717 272.07C219.66 268.589 219.884 265.384 219.369 262.463C218.872 259.526 217.635 257.007 215.656 254.922C213.686 252.835 210.988 251.342 207.594 250.423C204.05 249.464 200.865 249.371 198.059 250.183L198.058 250.183C195.278 250.996 192.943 252.558 191.061 254.856C189.189 257.142 187.798 259.997 186.876 263.403C186.181 265.972 185.863 268.411 185.93 270.718L185.93 270.721C186.013 273.036 186.501 275.151 187.401 277.059L187.402 277.062C188.32 278.982 189.67 280.63 191.44 282.005L191.441 282.006C193.233 283.39 195.464 284.436 198.119 285.154C200.7 285.853 203.101 286.06 205.315 285.76C207.521 285.461 209.506 284.725 211.263 283.547C213.033 282.362 214.543 280.796 215.794 278.857ZM205.829 280.967L205.827 280.968C203.99 281.587 201.814 281.577 199.274 280.889C196.751 280.206 194.857 279.115 193.551 277.643C192.253 276.167 191.474 274.357 191.222 272.194C190.97 270.016 191.205 267.562 191.946 264.824C192.691 262.07 193.724 259.842 195.03 258.12C196.349 256.398 197.945 255.247 199.821 254.645C201.688 254.046 203.88 254.068 206.421 254.756C210.165 255.769 212.516 257.65 213.603 260.349L213.604 260.352C214.729 263.089 214.764 266.523 213.635 270.694C212.894 273.433 211.866 275.674 210.564 277.432C209.271 279.177 207.693 280.347 205.829 280.967Z" fill="white" stroke="white"/>
<path d="M190.554 296.539L190.554 296.538C191.499 295.077 192.229 293.383 192.749 291.462C193.453 288.861 193.618 286.459 193.222 284.264C192.841 282.056 191.897 280.158 190.393 278.587C188.894 277.011 186.847 275.887 184.286 275.194C181.612 274.471 179.202 274.392 177.073 274.998L177.072 274.999C174.965 275.606 173.196 276.777 171.774 278.501C170.36 280.215 169.315 282.352 168.626 284.897C168.107 286.816 167.871 288.641 167.926 290.371L167.926 290.371L167.926 290.374C167.993 292.111 168.366 293.702 169.052 295.139L169.053 295.142C169.755 296.589 170.782 297.832 172.125 298.868L172.127 298.869C173.487 299.913 175.176 300.7 177.18 301.242C179.127 301.769 180.944 301.93 182.622 301.709C184.292 301.488 185.797 300.938 187.129 300.054C188.469 299.166 189.61 297.991 190.554 296.539ZM182.948 297.897L182.946 297.898C181.599 298.345 179.994 298.337 178.104 297.826C176.228 297.318 174.83 296.513 173.868 295.439C172.912 294.36 172.334 293.039 172.145 291.454C171.954 289.855 172.123 288.049 172.67 286.027C173.221 283.994 173.984 282.356 174.947 281.095C175.917 279.837 177.09 279.001 178.469 278.565C179.839 278.132 181.457 278.149 183.347 278.661C186.131 279.414 187.858 280.797 188.658 282.758L188.659 282.761C189.492 284.763 189.53 287.283 188.696 290.365C188.148 292.388 187.388 294.035 186.428 295.323C185.476 296.598 184.317 297.449 182.948 297.897Z" fill="white" stroke="white"/>
</g>
<defs>
<clipPath id="clip0_172_439">
<rect width="522" height="522" fill="white" transform="translate(4.77979 0.345703) rotate(0.48671)"/>
</clipPath>
</defs>
</svg>
