<svg width="665" height="944" viewBox="0 0 665 944" fill="none" xmlns="http://www.w3.org/2000/svg">
<path d="M752.63 387.498C701.258 262.82 559.296 202.447 435.548 252.651C311.8 302.855 253.128 444.624 304.499 569.302C355.871 693.98 497.833 754.353 621.581 704.15C745.329 653.946 804.001 512.176 752.63 387.498Z" fill="#BADEFF"/>
<path d="M703.129 508.543C720.95 378.996 630.546 258.363 501.206 239.102C371.865 219.841 252.567 309.245 234.746 438.791C216.925 568.338 307.329 688.971 436.669 708.232C566.009 727.493 685.308 638.09 703.129 508.543Z" fill="white"/>
<path opacity="0.55" d="M568.802 618.31C565.817 620.547 562.728 622.71 559.565 624.776C479.143 677.292 370.417 653.922 317.203 572.683C264.021 491.42 286.52 382.478 366.549 330.105C446.971 277.589 555.697 300.959 608.911 382.198C660.031 460.242 641.588 563.763 568.77 618.334L568.802 618.31Z" fill="#8891AA"/>
<path opacity="0.55" d="M526.166 339.864L674.023 357.068C729.129 447.785 715.11 555.338 641.635 641.466L601.676 626.867L566.517 573.196L526.191 339.896L526.166 339.864Z" fill="#8891AA"/>
<path d="M558.868 589.673L581.182 623.728" stroke="#EFEFEF" stroke-width="40" stroke-miterlimit="10" stroke-linecap="round"/>
</svg>
