<svg width="239" height="213" viewBox="0 0 239 213" fill="none" xmlns="http://www.w3.org/2000/svg">
<g clip-path="url(#clip0_173_516)">
<path fill-rule="evenodd" clip-rule="evenodd" d="M105.284 80.5422L176.477 29.3786C181.092 26.0621 187.543 27.082 190.824 31.6468L228.55 84.1421C231.83 88.7069 230.74 95.1466 226.125 98.4631L154.932 149.627L105.284 80.5422ZM25.5921 137.813C20.9772 141.13 19.8869 147.569 23.1674 152.134L60.8934 204.629C64.1739 209.194 70.625 210.214 75.24 206.898L147.84 154.723L147.841 154.723L154.932 149.627L105.284 80.5424L98.1927 85.6385L98.1926 85.6384L25.5921 137.813Z" fill="#BADEFF"/>
<path d="M9.6216 120.646C5.00669 123.963 3.91639 130.403 7.19691 134.967L44.9229 187.463C48.2034 192.028 54.6546 193.048 59.2695 189.731L131.87 137.556L82.2221 68.4718L9.6216 120.646Z" fill="#349CFD"/>
<path d="M89.3133 63.3756L82.2221 68.4717L131.87 137.556L138.961 132.46L89.3133 63.3756Z" fill="#E9E9E9"/>
<path d="M160.507 12.2119L89.3133 63.3755L138.961 132.46L210.155 81.2964C214.77 77.9799 215.86 71.5403 212.579 66.9755L174.853 14.4801C171.573 9.91533 165.122 8.8954 160.507 12.2119Z" fill="#C41010"/>
</g>
<defs>
<clipPath id="clip0_173_516">
<rect width="217.757" height="105.708" fill="white" transform="translate(0 127.08) rotate(-35.7031)"/>
</clipPath>
</defs>
</svg>
