<svg width="846" height="830" viewBox="0 0 846 830" fill="none" xmlns="http://www.w3.org/2000/svg">
<g clip-path="url(#clip0_172_438)">
<path d="M507.021 703.499L827.576 476.704L496.669 8.98763L328.116 116.133L507.021 703.499Z" fill="#BADEFF"/>
<path d="M473.593 734.566L812.734 475.303L453.271 5.09078L114.13 264.354L473.593 734.566Z" fill="white"/>
<path d="M499.724 194.329C495.33 197.688 490.236 200.012 484.868 201.129L481.097 164.844L507.792 144.313C518.795 160.197 515.371 182.275 499.787 194.25L499.71 194.309L499.724 194.329Z" fill="#FF218C"/>
<g opacity="0.7">
<path d="M458.64 132.93C474.002 123.526 493.96 126.744 505.424 140.489L479.53 160.377L458.645 132.896L458.64 132.93Z" fill="#7CAD27"/>
</g>
<path d="M480.042 201.708C467.364 203.179 454.871 197.918 447.12 187.739C438.82 176.841 437.445 162.066 443.412 149.682L476.529 165.72L480.008 201.704L480.042 201.708Z" fill="#349CFD"/>
<path d="M445.727 145.819C448.055 141.853 450.706 138.872 454.381 136.063C454.381 136.063 454.77 135.765 454.945 135.632L472.94 159.01L445.727 145.819Z" fill="#FEC928"/>
<path d="M563.664 285.06C559.269 288.419 554.175 290.743 548.807 291.86L545.051 255.595L571.746 235.064C582.734 250.928 579.31 273.006 563.726 284.981L563.649 285.041L563.664 285.06Z" fill="#FF410F"/>
<path d="M522.589 223.715C537.952 214.311 557.895 217.509 569.358 231.255L543.464 251.142L522.594 223.68L522.589 223.715Z" fill="#4DECEC"/>
<path d="M543.981 292.439C531.304 293.91 518.81 288.649 511.074 278.49C502.774 267.592 501.399 252.816 507.381 240.452L540.483 256.47L543.947 292.435L543.981 292.439Z" fill="#9C064E"/>
<path d="M509.681 236.57C512.009 232.603 514.66 229.623 518.335 226.813C518.335 226.813 518.724 226.516 518.899 226.382L536.879 249.741L509.681 236.57Z" fill="#FEC928"/>
<path d="M430.207 88.402L187.049 274.104" stroke="#5B5B5B" stroke-width="4.64" stroke-miterlimit="10"/>
<path d="M387.378 185.191L217.966 314.547" stroke="#5B5B5B" stroke-width="3.94" stroke-miterlimit="10"/>
<path d="M395.856 245.405L250.161 356.661" stroke="#5B5B5B" stroke-width="3.49" stroke-miterlimit="10"/>
<path d="M409.61 265.251L264.81 375.823" stroke="#5B5B5B" stroke-width="3.49" stroke-miterlimit="10"/>
<path d="M379.766 224.358L234.071 335.614" stroke="#5B5B5B" stroke-width="3.49" stroke-miterlimit="10"/>
<path d="M462.205 333.123L316.958 444.037" stroke="#5B5B5B" stroke-width="3.49" stroke-miterlimit="10"/>
<path d="M444.408 308.916L298.713 420.172" stroke="#5B5B5B" stroke-width="3.49" stroke-miterlimit="10"/>
<path d="M471.822 358.196L327.255 468.589" stroke="#5B5B5B" stroke-width="3.49" stroke-miterlimit="10"/>
<path d="M450.731 268.949L281.747 397.978" stroke="#5B5B5B" stroke-width="3.94" stroke-miterlimit="10"/>
<path d="M518.739 358.878L350.222 487.551" stroke="#5B5B5B" stroke-width="3.94" stroke-miterlimit="10"/>
<path d="M527.217 419.093L382.417 529.665" stroke="#5B5B5B" stroke-width="3.49" stroke-miterlimit="10"/>
<path d="M543.01 439.751L398.21 550.323" stroke="#5B5B5B" stroke-width="3.49" stroke-miterlimit="10"/>
<path d="M574.908 481.477L430.108 592.049" stroke="#5B5B5B" stroke-width="3.49" stroke-miterlimit="10"/>
<path d="M590.998 502.524L446.198 613.096" stroke="#5B5B5B" stroke-width="3.49" stroke-miterlimit="10"/>
<path d="M512.022 397.361L366.327 508.617" stroke="#5B5B5B" stroke-width="3.49" stroke-miterlimit="10"/>
<path d="M738.986 464.832L641.975 538.902" stroke="#5B5B5B" stroke-width="2.86" stroke-miterlimit="10"/>
<path d="M723.395 444.235L604.859 534.759" stroke="#5B5B5B" stroke-width="3.16" stroke-miterlimit="10"/>
<path d="M582.073 442.651L414.003 570.982" stroke="#5B5B5B" stroke-width="3.94" stroke-miterlimit="10"/>
<path d="M648.383 414.499C676.572 392.95 681.963 352.64 660.424 324.465C638.885 296.291 598.573 290.92 570.384 312.469C542.195 334.019 536.804 374.328 558.343 402.503C579.882 430.678 620.194 436.049 648.383 414.499Z" fill="#FEC928" stroke="white" stroke-width="3.18" stroke-miterlimit="10"/>
<path d="M609.384 363.484L628.868 424.676C635.905 422.437 642.511 418.988 648.383 414.499C676.382 393.095 681.818 352.451 660.424 324.465C639.03 296.48 598.383 291.065 570.384 312.469C542.385 333.874 536.949 374.518 558.343 402.503C569.218 416.729 585.568 425.785 603.432 427.431L609.384 363.484Z" fill="#CAEF43" stroke="white" stroke-width="3.18" stroke-miterlimit="10"/>
<path d="M609.384 363.484L628.868 424.676C635.905 422.437 642.511 418.988 648.383 414.499C676.382 393.095 681.818 352.451 660.424 324.466C639.03 296.48 598.383 291.065 570.384 312.469C561.732 319.084 554.913 327.776 550.544 337.736L609.384 363.484Z" fill="#6CB9FF" stroke="white" stroke-width="3.18" stroke-miterlimit="10"/>
<path d="M609.384 363.484L628.868 424.676C635.905 422.437 642.511 418.988 648.383 414.499C676.382 393.095 681.818 352.451 660.424 324.465C656.918 319.879 652.804 315.788 648.207 312.312L609.384 363.484Z" fill="#C41010" stroke="white" stroke-width="3.18" stroke-miterlimit="10"/>
<path d="M609.384 363.484L628.868 424.676C635.905 422.437 642.511 418.988 648.383 414.499C657.288 407.691 664.255 398.67 668.602 388.358L609.384 363.484Z" fill="#012E57" stroke="white" stroke-width="3.18" stroke-miterlimit="10"/>
</g>
<defs>
<clipPath id="clip0_172_438">
<rect width="459" height="602" fill="white" transform="translate(114.13 264.354) rotate(-37.3968)"/>
</clipPath>
</defs>
</svg>
