<svg width="1440" height="1856" viewBox="0 0 1440 1856" fill="none" xmlns="http://www.w3.org/2000/svg">
<path fill-rule="evenodd" clip-rule="evenodd" d="M1749.63 389.82L1749.63 389.817L1653.38 363.428L1185.78 607.955L1190.19 616.177L1110.91 658.682L1130.67 695.591L1144.99 722.286L1098.31 746.977C1094.14 739.823 1075.64 732.981 1059.69 732.726L893.506 741.332C869.726 751.195 839.29 755.611 802.12 754.558C799.882 772.18 803.496 784.82 813.04 792.5C818.96 797.333 826.88 800.122 836.84 800.877C853.425 802.543 875.702 799.513 903.719 791.758L916.755 791.957L954.141 797.473L780.939 887.964L764.298 895.498C743.883 890.669 721.4 885.351 709.505 882.559C694.743 879.094 675.377 874.532 666.477 872.425C657.578 870.317 622.057 861.908 587.542 853.775L511.886 835.901C477.382 827.729 420.85 814.391 386.334 806.258L230.049 769.394C195.495 761.251 165.246 763.182 162.753 773.639C162.064 776.574 160.887 781.562 159.373 787.98C155.468 804.533 149.318 830.6 143.513 855.488L135.284 890.351C127.112 924.856 113.774 981.388 105.641 1015.9L27.7983 1345.76C19.6546 1380.31 25.3682 1411.47 40.517 1415.05C46.0089 1416.34 54.8508 1418.43 65.5365 1420.95C84.3261 1425.39 108.817 1431.17 130.819 1436.35L206.485 1454.19C241.001 1462.32 276.521 1470.73 285.42 1472.84C287.394 1473.31 289.889 1473.9 292.738 1474.57L293.314 1474.71L293.767 1474.82C303.643 1477.16 317.316 1480.4 328.399 1483C343.161 1486.47 374.243 1493.78 397.43 1499.27C420.655 1504.76 467.891 1515.93 502.406 1524.06L505.608 1524.81C522.841 1528.87 545.56 1534.24 568.287 1539.61L568.555 1539.67C591.257 1545.04 613.945 1550.4 631.16 1554.46L894.442 1616.62C928.957 1624.76 963.892 1603.16 972.025 1568.64L971.948 1568.62L1029.87 1323.26C1038.04 1288.75 1051.38 1232.22 1059.51 1197.7L1081.59 1104.12C1089.74 1069.57 1096.41 1041.3 1096.41 1041.3C1096.41 1041.3 1099.8 1026.94 1103.96 1009.37C1107.27 995.336 1092.07 979.089 1068.22 968.975L1120.03 940.1C1145.46 924.351 1153.3 894.558 1157.65 870.147C1169.25 863.992 1180.41 857.562 1191.54 851.148C1197.28 847.844 1203.01 844.545 1208.78 841.289L1229.29 879.542L1229.29 879.541L1233.98 888.276L1312.42 844.224L1312.44 844.26L2028.53 466.289L1749.63 389.82ZM842.159 913.901C856.437 917.272 870.823 920.667 883.501 923.655L886.665 924.398L892.143 925.689C890.144 918.901 890.083 912.438 891.989 906.309C894.109 898.123 897.662 891.77 902.707 887.184L842.159 913.901Z" fill="#BADEFF"/>
<path d="M935.025 1537.64C926.892 1572.16 891.957 1593.76 857.442 1585.62L594.16 1523.46C559.645 1515.32 503.123 1501.95 468.608 1493.81L465.406 1493.06C430.891 1484.93 383.656 1473.76 360.43 1468.27C337.243 1462.78 306.162 1455.47 291.399 1452C276.637 1448.54 257.281 1443.94 248.421 1441.84C239.521 1439.73 204.001 1431.32 169.486 1423.19L93.8191 1405.35C59.3039 1397.22 18.6659 1387.62 3.51714 1384.05C-11.6316 1380.48 -17.3452 1349.31 -9.20156 1314.76L68.6415 984.903C76.7745 950.388 90.1126 893.856 98.2843 859.351L106.513 824.488C114.568 789.952 123.288 753.145 125.753 742.639C128.246 732.183 158.496 730.251 193.05 738.394L349.335 775.258C383.85 783.391 440.382 796.729 474.886 804.901L550.542 822.776C585.057 830.909 620.578 839.317 629.477 841.425C638.377 843.532 657.743 848.094 672.505 851.559C687.268 855.025 718.338 862.38 741.525 867.864C764.712 873.348 811.947 884.512 846.501 892.655L849.665 893.398C884.18 901.531 940.712 914.869 975.227 923.002L1011.72 931.637C1046.24 939.77 1071.11 960.804 1066.96 978.371C1062.81 995.938 1059.41 1010.3 1059.41 1010.3C1059.41 1010.3 1052.74 1038.57 1044.59 1073.12L1022.51 1166.7C1014.38 1201.22 1001.04 1257.75 992.869 1292.26L934.948 1537.62L935.025 1537.64Z" fill="#434051"/>
<path d="M217.106 814.624L94.2259 1335.16L861.77 1516.35L984.65 995.813L217.106 814.624Z" fill="#E3F1FC"/>
<path d="M137.966 973.565L100.87 1143.13C99.7174 1148.09 94.7171 1151.17 89.7648 1149.98C84.8019 1148.82 81.7252 1143.82 82.9167 1138.87L120.013 969.308C121.166 964.345 126.166 961.268 131.118 962.46C136.081 963.613 139.158 968.613 137.966 973.565Z" fill="black"/>
<path d="M754.367 1148.5L713.204 991.028C735.57 987.226 758.091 988.163 780.273 993.829C782.322 994.391 784.409 994.963 786.497 995.536C828.161 1007.91 862.513 1035.75 883.209 1073.97C902.804 1110.14 907.976 1151.46 897.976 1191.12L754.377 1148.47L754.367 1148.5Z" fill="#7CAD27"/>
<path d="M754.818 1168.99L894.108 1210.38C867.977 1286.44 789.687 1332.14 710.711 1317.43L754.818 1168.99Z" fill="#28B5F5"/>
<path d="M621.591 1272.26C577.182 1230.32 559.78 1166.44 577.256 1107.55C593.562 1052.62 637.491 1010.5 692.72 996.301L734.585 1151.98L621.552 1272.25L621.591 1272.26Z" fill="#C41010"/>
<path d="M691.62 1312.32C690.538 1312.02 689.417 1311.72 688.334 1311.42C668.54 1305.54 652.786 1297.35 636.827 1284.45L730.28 1184.96L691.659 1312.33L691.62 1312.32Z" fill="#FEC007"/>
<path fill-rule="evenodd" clip-rule="evenodd" d="M1392.17 716.586L1327.67 625.591L1172.56 649.664L1127.22 681.112L1061.31 715.977C1057.14 708.823 1038.64 701.981 1022.69 701.726L856.506 710.333C832.726 720.196 802.29 724.611 765.12 723.559C762.882 741.18 766.497 753.82 776.04 761.5C781.96 766.334 789.88 769.123 799.84 769.878C816.425 771.543 838.702 768.513 866.72 760.758L879.755 760.957L917.141 766.474L743.939 856.964L678.989 886.371C668.172 893.696 665.505 903.873 670.957 917.017C677.556 932.286 689.889 936.696 707.912 930.112L768.585 899.039L865.707 856.185C860.663 860.77 857.11 867.123 854.989 875.309C852.901 882.023 853.173 889.136 855.768 896.639C861.169 911.169 871.286 917.359 886.159 915.057C887.402 915.027 888.83 914.925 890.394 914.777C889.755 915.755 889.217 916.966 888.697 918.263C885.714 925.39 885.575 932.803 888.325 940.637C892.827 953.644 901.611 959.139 914.59 957.141C916.384 957.056 918.229 956.78 920.176 956.285C918.927 958.288 918.155 960.505 917.984 962.928C917.293 966.649 917.542 970.546 918.724 974.492C920.366 978.112 921.922 980.844 923.441 982.66C926.015 985.135 929.188 986.623 933.01 987.094C934.409 987.396 936.029 987.346 937.864 987.108C939.657 987.023 941.722 986.848 944.118 986.517L1083.03 909.1C1108.46 893.351 1116.3 863.558 1120.65 839.147C1147.96 824.654 1172.85 808.633 1200.66 794.894C1209.23 790.657 1223.3 793.239 1231.96 789.111C1284.47 763.66 1337.86 739.482 1392.1 716.565L1392.17 716.586Z" fill="#FFB287"/>
</svg>
