<svg width="1440" height="1701" viewBox="0 0 1440 1701" fill="none" xmlns="http://www.w3.org/2000/svg">
<path d="M772.008 206.068L517.393 971.685L1148.31 1158.44L1402.92 392.822L772.008 206.068Z" fill="#BADEFF"/>
<path d="M772.008 206.069L524.192 951.242L1122.44 1128.33L1370.26 383.154L772.008 206.069Z" fill="#E9E9E9"/>
<path d="M977.744 435.426L944.876 534.258L1232.24 619.318L1265.1 520.485L977.744 435.426Z" fill="#C41010"/>
<path d="M967.088 683.923L941.251 761.615L962.037 767.768L987.874 690.076L967.088 683.923Z" fill="#FEC928"/>
<path d="M1002.21 688.439L974.582 771.511L995.368 777.664L1022.99 694.592L1002.21 688.439Z" fill="#FE6F00"/>
<path d="M1047.66 663.549L1008.44 781.484L1029.23 787.637L1068.45 669.702L1047.66 663.549Z" fill="#7CAD27"/>
<path d="M1077.09 683.217L1041.18 791.184L1061.97 797.336L1097.87 689.37L1077.09 683.217Z" fill="#4DECEC"/>
<path d="M1120.79 661.815L1074.5 801.006L1095.28 807.159L1141.57 667.968L1120.79 661.815Z" fill="#349CFD"/>
<path d="M1159.04 662.503L1109.52 811.398L1130.31 817.551L1179.82 668.656L1159.04 662.503Z" fill="#C41010"/>
<path d="M904.305 749.532L903.621 751.589L1198.91 838.996L1199.59 836.939L904.305 749.532Z" fill="#414141"/>
<path d="M895.626 736.959L893.072 734.216L995.383 655.461L1028.8 667.167L1080.86 647.71L1103.31 676.568L1151.93 659.508L1190.78 665.198L1212.17 665.73L1212.14 669.293L1190.5 668.734L1152.43 663.188L1101.97 680.876L1079.51 652.073L1028.91 671.026L996.197 659.567L895.626 736.959Z" fill="#414141"/>
<path d="M1216.11 676.712C1210.21 674.984 1206.84 669.194 1208.67 663.827C1210.44 658.453 1216.69 655.483 1222.58 657.267C1228.48 658.995 1231.79 664.777 1230.02 670.151C1228.25 675.525 1222.01 678.44 1216.11 676.712ZM1221.47 660.652C1217.64 659.493 1213.58 661.429 1212.39 664.918C1211.2 668.406 1213.39 672.167 1217.22 673.327C1221.05 674.486 1225.11 672.549 1226.3 669.061C1227.49 665.572 1225.3 661.811 1221.47 660.652Z" fill="#414141"/>
<path fill-rule="evenodd" clip-rule="evenodd" d="M777.635 805.799C713.932 820.212 648.076 798.015 606.694 752.544L606.763 752.5L710.659 501.999C699.18 502.906 687.661 504.942 676.255 508.187C632.305 520.696 598.153 548.892 578.31 584.371C596.856 543.439 633.389 510.386 682.045 496.579C701.368 491.098 721.014 489.079 740.228 490.142C758.324 491.135 776.036 494.871 792.744 501.01L792.723 501.024C794.288 501.6 795.843 502.198 797.39 502.816L797.462 502.768C806.798 506.49 815.802 510.997 824.311 516.2L824.283 516.269C843.731 528.132 860.803 543.663 874.148 562.183C876.951 566.059 879.58 570.057 882.058 574.214L882.048 574.238C885.654 580.313 888.88 586.657 891.687 593.25L891.749 593.274C893.239 596.785 894.651 600.394 895.925 604.089C900.89 618.619 903.486 633.258 904.067 647.734L904.039 647.723C904.683 664.234 902.58 680.473 898.022 695.927L898.083 695.95L896.709 700.266L896.675 700.253C895.742 703.101 894.725 705.92 893.625 708.707L893.692 708.733L893.692 708.735C893.118 710.15 892.544 711.566 891.981 712.928L891.9 712.896C890.695 715.702 889.407 718.472 888.036 721.203L888.093 721.226L888.091 721.23C887.412 722.568 886.733 723.906 885.996 725.233L885.949 725.214C885.578 725.902 885.202 726.587 884.821 727.269C884.891 727.115 884.961 726.961 885.03 726.807C883.839 728.913 882.612 731.011 881.349 733.103L745.848 680.572L744.136 684.766L744.2 684.791L745.895 680.637L881.396 733.168C880.774 734.198 880.123 735.188 879.46 736.195C879.327 736.397 879.194 736.599 879.06 736.803L878.904 737.042L878.831 737.014C877.074 739.602 875.327 742.135 873.464 744.647L740.655 693.143L738.954 697.283L739.018 697.308L740.703 693.209L873.512 744.712C872.911 745.539 872.259 746.355 871.607 747.172L871.381 747.454C871.13 747.769 870.88 748.083 870.634 748.399L870.558 748.369C864.302 756.231 857.266 763.494 849.518 770.114L849.53 770.119C832.322 784.778 811.584 796.214 787.938 803.078L787.889 803.195C787.567 803.303 787.188 803.399 786.866 803.507C783.806 804.387 780.71 805.148 777.624 805.854L796.099 761.232L796.088 761.287L803.968 764.329L804.01 764.228L796.109 761.178L777.635 805.799ZM887.502 720.996C887.506 720.986 887.51 720.976 887.514 720.966L751.03 668.055L749.329 672.194L749.447 672.24L751.136 668.131L887.502 720.996ZM890.645 712.432C890.647 712.426 890.649 712.419 890.651 712.412L754.627 659.7L754.685 659.711L756.385 655.546L756.223 655.483L754.511 659.677L890.645 712.432ZM897.051 645.165C897.044 645.112 897.037 645.059 897.029 645.006L747.334 586.981L747.28 587.111L897.051 645.165ZM875.446 584.472C875.452 584.482 875.458 584.492 875.464 584.502L863.618 579.934L863.674 579.945L863.676 579.945L867.001 571.91C867.014 571.928 867.028 571.946 867.041 571.964L863.734 579.956L875.446 584.472ZM784.259 511.633C784.257 511.632 784.255 511.632 784.253 511.631L759.702 528.116L759.705 528.12L784.259 511.633ZM767.806 542.808L806.926 557.977L828.717 566.42L841.885 571.503L841.837 571.437L828.67 566.354L806.879 557.912L806.908 557.842L767.851 542.697L767.806 542.808ZM759.845 647.16L759.878 647.139L761.567 643.029L761.405 642.966L759.704 647.106L759.845 647.16ZM508.508 745.661C508.508 745.661 521.244 735.986 521.529 729.307L564.837 716.994L553.18 682.864L509.874 695.176C505.47 689.822 489.002 688.515 489.002 688.515C483.492 686.492 477.356 686.157 471.401 688.007L423.346 702.786C426.239 691.361 420.849 678.907 409.401 672.661L399.594 667.321C385.755 659.789 368.374 664.073 360.712 676.96L350.839 692.872C354.272 681.208 348.938 668.262 337.138 661.841L327.331 656.5C313.492 648.969 296.111 653.253 288.449 666.14L273.239 691.673C276.796 680.124 271.509 667.235 259.849 660.853L254.238 657.792C240.621 650.36 223.54 654.646 215.989 667.272L205.072 685.615L180.311 678.717C159.271 673.248 137.35 681.407 126.294 698.786C99.2178 741.184 64.1932 801.39 66.6453 842.071L66.6348 842.126C70.0193 898.454 52.7223 926.255 51.9473 927.469L32.0318 916.616L14.3556 946.306L14.3736 946.315L14.3561 946.345L45.4224 963.274L14.3272 946.39L-3.53413 936.613L-238.556 1350.68L-108.418 1401.12L-108.438 1401.16L21.6903 1451.58L238.295 1068.4L220.434 1058.62L117.41 1002.51L117.399 1002.57L56.2911 969.197L117.382 1002.49L117.399 1002.46L220.459 1058.62L238.135 1028.93L218.054 1017.99C218.978 1016.05 238.269 976.068 266.782 964.35C282.732 957.811 302.292 946.595 322.568 933.538C322.864 933.534 323.157 933.545 323.459 933.557C323.712 933.568 323.972 933.578 324.246 933.579C335.535 924.049 346.824 914.519 358.171 905C362.835 901.064 367.084 897.604 371.024 894.395L371.027 894.392C386.766 881.575 397.583 872.766 410.265 853.683C418.502 841.246 432.047 815.015 438.352 801.979C438.793 801.073 439.462 799.764 440.267 798.188L440.267 798.187L440.268 798.185L440.269 798.183C444.565 789.771 452.749 773.746 451.023 770.604C451.023 770.604 449.19 769.165 445.789 767.886L494.328 755.199C500.357 753.591 505.24 750.121 508.508 745.661ZM333.41 847.633L337.806 840.513C339.948 838.677 341.825 836.48 343.334 833.937L372.423 787.062L402.947 779.083C402.247 779.645 401.541 780.228 400.829 780.834C376.844 801.263 367.3 822.044 363.681 830.508L333.41 847.633ZM768.826 625.395L768.889 625.419L765.441 633.731L870.443 674.444L870.442 674.448L765.355 633.718L768.826 625.395Z" fill="#BADEFF"/>
<path d="M512.9 681.336L459.249 700.269L473.294 732.265L526.945 713.333L512.9 681.336Z" fill="#D1D2D3"/>
<path d="M450.09 691.07C444.51 689.497 438.439 689.587 432.71 691.763L115.464 811.277C102.532 816.153 96.4676 829.644 101.754 841.677L104.209 847.294C109.496 859.327 124.244 865.481 137.345 861.162L460.339 754.758C466.159 752.809 470.71 749.148 473.595 744.646L450.09 691.07Z" fill="#C41010"/>
<path d="M484.858 726.495L472.109 697.437C469.368 691.248 450.091 691.071 450.091 691.071L473.595 744.646C473.595 744.646 487.541 732.678 484.858 726.495Z" fill="#3F3F41"/>
<path d="M861.383 576.848C822.804 488.99 714.165 444.842 619.128 478.339C524.085 511.889 478.186 610.599 516.707 698.451C555.286 786.31 663.925 830.457 758.961 796.96C854.004 763.41 899.904 664.7 861.383 576.848Z" fill="#B1B3B5"/>
<path d="M846.594 587.245C811.769 507.955 713.689 468.068 627.864 498.294C542.091 528.58 500.62 617.695 535.38 697.031C570.205 776.321 668.286 816.208 754.11 785.982C839.884 755.696 881.355 666.581 846.594 587.245Z" fill="#E4FEFF"/>
<path d="M703.115 795.418C645.66 798.175 593.052 774.37 562.207 737.729L642.51 491.62C644.286 491.486 646.071 491.372 647.864 491.289C749.764 486.402 845 550.573 860.26 634.406C875.438 718.261 804.977 790.459 703.115 795.418Z" fill="#E9E9E9"/>
<path d="M670.998 737.893L616.378 721.149L620.328 708.264L638.141 707.801L668.739 607.991L654.304 597.437L658.225 584.646L712.845 601.39L708.924 614.181L691.054 614.832L660.456 714.641L674.948 725.009L670.998 737.893Z" fill="#012E57"/>
<path d="M724.625 707.323L766.471 570.82L788.88 577.69L747.033 714.193L724.625 707.323Z" fill="#012E57"/>
<path d="M846.594 587.244C811.769 507.955 713.689 468.068 627.864 498.294C542.091 528.58 500.62 617.695 535.38 697.031C570.205 776.32 668.286 816.208 754.111 785.982C839.884 755.696 881.355 666.58 846.594 587.244Z" fill="#E4FEFF" fill-opacity="0.25"/>
<path d="M-217.09 1375.85L-61.9153 1422.53L129.26 1027.3L107.514 1017.63L37.6993 986.513L1.74658 970.59L-16.5851 962.398L-217.09 1375.85Z" fill="#031D34"/>
<path d="M-85.1024 1415.6L46.8915 1455.29L231.568 1072.74L213.236 1064.55L107.52 1017.57L107.514 1017.63L-85.1024 1415.6Z" fill="#012E57"/>
<path d="M16.9574 940.807L1.76825 970.507L213.261 1064.55L228.45 1034.85L16.9574 940.807Z" fill="#E0E0E0"/>
<path d="M16.9608 940.844L1.77162 970.544L107.491 1017.55L122.681 987.853L16.9608 940.844Z" fill="#BDBDBD"/>
<path d="M189.977 1109.05C187.525 1117.86 176.4 1121.39 168.28 1115.91C163.816 1112.85 161.632 1107.43 162.976 1102.53C165.428 1093.72 176.553 1090.19 184.615 1095.67C189.079 1098.72 191.262 1104.15 189.919 1109.05L189.977 1109.05Z" fill="#E0E0E0"/>
<path d="M166.866 1147.81C164.414 1156.62 153.289 1160.15 145.169 1154.67C140.705 1151.61 138.522 1146.19 139.865 1141.29C142.317 1132.48 153.442 1128.96 161.504 1134.43C165.968 1137.48 168.152 1142.91 166.808 1147.81L166.866 1147.81Z" fill="#E0E0E0"/>
<path d="M312.14 710.298L239.701 851.885C232.197 866.605 211.729 871.022 197.311 861.086L188.228 854.794C177.349 847.267 173.572 833.906 179.297 822.796L250.813 683.038C257.395 670.147 274.199 664.866 288.4 671.171L298.463 675.642C312.663 681.947 318.774 697.467 312.191 710.358L312.14 710.298Z" fill="#FFB287"/>
<path d="M384.208 715.848L317.475 840.511C309.971 855.231 289.503 859.649 275.084 849.712L266.001 843.42C255.122 835.893 251.352 822.479 257.07 811.423L322.823 688.581C329.406 675.69 346.21 670.409 360.41 676.714L370.473 681.185C384.616 687.483 390.784 703.01 384.202 715.901L384.208 715.848Z" fill="#FFB287"/>
<path d="M235.79 714.09L163.192 856.034C155.701 870.648 135.252 874.906 121.148 864.792L115.941 861.056C105.526 853.584 101.996 840.628 107.509 829.817L179.505 688.986C185.998 676.353 202.505 671.091 216.48 677.315L222.237 679.879C236.154 686.096 242.238 701.344 235.739 714.03L235.79 714.09Z" fill="#FFB287"/>
<path d="M45.4638 866.941C53.1961 922.044 37.3703 949.934 37.3703 949.934L207.815 1025.76C207.815 1025.76 223.937 984.395 251.831 970.899C267.056 963.548 285.487 951.464 304.485 937.563C305.02 937.519 305.549 937.528 306.141 937.49C316.549 927.579 326.957 917.669 337.423 907.765C358.9 887.323 371.066 878.965 384.901 854.984C392.084 842.486 403.462 816.385 408.697 803.442C411.018 797.743 421.128 775.904 418.828 772.458C418.828 772.458 398.08 758.815 370.141 785.651C348.041 806.881 340.195 827.48 337.265 835.852L308.724 854.33L365.655 747.398L299.732 733.156L145.21 702.372C124.07 698.53 103.084 707.838 93.4941 725.271C69.9962 767.807 40.0029 827.981 45.4701 866.888L45.4638 866.941Z" fill="#FFB287"/>
<path d="M839.85 594.271C855.606 630.249 855.605 668.134 842.988 701.731C860.275 665.456 862.246 622.854 844.625 582.727C809.8 503.437 711.72 463.55 625.895 493.776C578.992 510.301 545.476 544.497 530.273 585.054C547.162 549.647 578.696 520.276 621.061 505.313C706.835 475.027 804.973 514.921 839.792 594.264L839.85 594.271Z" fill="#3F3F41"/>
</svg>
