<svg width="504" height="637" viewBox="0 0 504 637" fill="none" xmlns="http://www.w3.org/2000/svg">
<path d="M380.969 125.345C377.125 113.057 452.021 130.398 466.555 162.544L558.815 321.456L584.211 307.113L723.112 569.223C723.112 569.223 630.234 599.392 627.233 595.126C624.232 590.86 373.181 203.536 373.181 203.536L380.96 125.314L380.969 125.345Z" fill="#BADDF9"/>
<path d="M216.999 169.968C263.549 147.414 292.636 140.799 333.968 149.789C370.805 157.811 392.847 183.066 399.655 241.093L375.857 264.051" stroke="#DB926E" stroke-width="50" stroke-linecap="round" stroke-linejoin="round"/>
<path d="M385.556 194.879L403.824 148.218C422.313 137.815 418.44 120.619 444.194 155.016L607.545 458.224C617.949 476.712 611.307 500.377 592.819 510.781L565.868 525.923C547.379 536.327 523.715 529.686 513.311 511.197L361.988 242.064C351.584 223.576 371.1 209.266 385.556 194.879Z" fill="#FFB287"/>
<path d="M406.366 258.227C453.413 279.044 465.102 331.386 440.883 348.31C404.954 373.369 350.17 334.485 309.281 298.532C248.423 244.996 278.117 210.165 305.824 220.451C331.146 229.87 375.616 244.631 406.375 258.258L406.366 258.227Z" fill="#FFB287"/>
<path d="M285.352 212.074C315.568 234.011 406.597 180.863 339.299 132.963L413.564 181.534C413.564 181.534 387.862 211.121 386.779 211.715C385.697 212.31 363.989 266.384 340.506 246.86C338.644 245.314 285.352 212.074 285.352 212.074Z" fill="#FFB287"/>
<path d="M191.416 152.994L242.333 80.4466C316.502 98.9422 362.013 103.881 415.817 168.36" stroke="#FFB287" stroke-width="50" stroke-miterlimit="10" stroke-linecap="round"/>
<path d="M176.076 193.454L146.56 213.153" stroke="#3A3634" stroke-width="2.46" stroke-linecap="round" stroke-linejoin="round"/>
<path d="M399.17 28.0293L158.511 193.597C155.932 195.369 155.596 199.222 157.714 202.211L161.504 207.537C163.622 210.526 167.522 211.656 170.205 210.024L421.887 59.8879C432.39 53.6238 425.43 49.9947 421.058 43.8856L413.276 32.9868C408.904 26.8777 409.197 21.1212 399.139 28.0378L399.17 28.0293Z" fill="#C41010"/>
<path d="M424.098 36.9837C429.552 46.2272 429.705 55.9956 424.478 58.785C419.26 61.6056 410.594 56.388 405.172 47.1361C399.718 37.8927 399.565 28.1243 404.792 25.3349C410.01 22.5142 418.676 27.7318 424.098 36.9837Z" fill="#FF5656"/>
<path d="M425 36.8408C429.471 44.435 429.685 52.4399 425.432 54.731C421.18 57.022 414.136 52.71 409.657 45.0846C405.178 37.4592 404.972 29.4855 409.225 27.1944C413.446 24.9118 420.521 29.2154 425 36.8408Z" fill="#C41010"/>
<path d="M409.264 27.2172L423.596 17.0965L440.659 44.0661L425.464 54.7224L409.264 27.2172Z" fill="#C41010"/>
<path d="M442.197 25.1397C446.668 32.7338 446.002 41.2117 440.659 44.0662C435.347 46.9123 427.392 43.0817 422.921 35.4876C418.451 27.8934 419.116 19.4155 424.46 16.561C429.771 13.715 437.727 17.5456 442.197 25.1397Z" fill="#FF5656"/>
<path d="M418.876 344.446C410.767 346.636 401.8 345.531 394.155 340.609L333.77 301.76L196.106 234.639C180.6 227.608 168.843 214.557 172.093 207.061C178.854 191.427 206.612 183.995 218.91 189.475L357.856 238.208C359.197 238.82 364.011 247.934 365.269 248.736L427.525 288.793C441.837 297.995 445.981 317.066 436.779 331.378C432.468 338.052 426.014 342.517 418.907 344.437L418.876 344.446Z" fill="#FFB287"/>
<path d="M22.3086 305.11C17.1629 278.851 12.6923 237.931 34.4307 240.054C54.3297 247.679 58.8729 282.029 60.2845 306.776C60.5388 311.075 61.3304 315.497 63.9617 319.019C66.593 322.541 72.197 324.756 77.0374 322.777C79.5203 321.77 81.5014 320.025 83.0535 318.061C119.024 271.892 106.119 181.346 98.3702 198.053C98.3702 198.053 88.5207 214.32 92.359 222.186C108.587 255.395 105.094 294.939 116.94 329.835C119.248 336.636 122.53 344.182 130.495 346.431C150.97 358.302 110.617 221.251 111.919 218.111C112.792 215.994 122.277 260.431 133.176 256.378C145.325 253.969 128.535 211.842 132.11 216.62C135.686 221.399 139.503 221.476 138.321 223.072C137.14 224.668 139.947 221.256 144.639 215.99" stroke="#C41010" stroke-miterlimit="10"/>
<path d="M555.576 353.405L457.722 410.514L432.984 367.443L530.729 311.673L555.576 353.405Z" fill="#DB926E"/>
<path d="M680.709 499.735L532.083 583.293L505.759 599.14L399.331 399.312L429.162 382.518L577.787 298.96L680.709 499.735Z" fill="#C7D1E0"/>
<path d="M684.247 498.779L535.621 582.337L429.162 382.518L577.787 298.96L684.247 498.779Z" fill="white"/>
<path d="M734.264 563.543L573.309 607.061L516.097 622.484L428.729 467.093L478.777 438.958L619.642 359.747L734.264 563.543Z" fill="#031D34"/>
<path d="M734.264 563.543L573.309 607.061L478.777 438.958L619.642 359.747L734.264 563.543Z" fill="#012E57"/>
</svg>
