<svg width="385" height="469" viewBox="0 0 385 469" fill="none" xmlns="http://www.w3.org/2000/svg">
<g clip-path="url(#clip0_286_4)">
<path d="M291.344 224.182L291.78 224.549C312.251 197.698 329.663 169.96 342.94 141.259C348.337 133.69 346.458 124.509 338.569 117.615L338.133 117.247L323.948 104.83L323.511 104.463L298.843 82.8728L298.407 82.5053C290.557 75.6122 282.607 75.1247 274.131 81.0832C249.538 93.3573 223.499 114.286 196.681 141.355C147.384 191.092 95.4857 261.519 45.2627 336.526C39.7897 342.647 41.7445 353.275 49.633 360.17L74.7601 382.147L89.3437 394.93C97.2093 401.805 108.147 402.473 113.62 396.352C180.793 343.104 244.221 285.962 291.344 224.182Z" fill="#BADEFF"/>
<path d="M215.657 205.328L210.982 201.234C203.277 194.494 201.834 185.681 206.698 178.093C215.111 161.963 227.905 148.786 243.228 137.311C248.58 131.334 259.281 131.957 266.986 138.696L271.661 142.79C279.366 149.53 281.297 159.954 275.945 165.931C263.641 185.886 251.459 199.456 239.415 206.713C233.276 211.996 223.362 212.068 215.657 205.328Z" fill="black"/>
<path d="M92.9039 375.756C87.4309 381.877 76.5008 381.246 68.6275 374.334L43.5233 352.376C35.6578 345.501 33.68 334.854 39.1531 328.732C89.399 253.745 141.297 183.318 190.594 133.581C217.412 106.512 243.466 85.5651 268.044 73.309C276.52 67.3505 284.447 67.8186 292.321 74.7311L317.425 96.6884C325.29 103.564 327.155 112.762 321.795 120.332C308.518 149.033 291.122 176.754 270.635 203.623C223.536 265.423 160.107 322.565 92.9117 375.793L92.9039 375.756Z" fill="#FEC928"/>
<path d="M239.277 206.505C233.137 211.788 223.224 211.86 215.519 205.12L210.844 201.026C209.88 200.214 209.053 199.332 208.302 198.453C202.878 192.128 202.293 184.531 206.56 177.885C214.958 161.773 227.751 148.596 243.09 137.103C247.813 131.826 256.727 131.681 264.05 136.406C265.028 137.016 265.968 137.716 266.871 138.508L271.546 142.602C279.251 149.341 281.182 159.765 275.83 165.742C263.526 185.698 251.344 199.267 239.3 206.524L239.277 206.505Z" fill="#FE6F00"/>
<path d="M270.108 203.178L189.669 132.77C216.486 105.701 242.54 84.7544 267.118 72.4982C275.594 66.5397 283.522 67.0078 291.395 73.9203L316.897 96.2439C324.763 103.119 326.65 112.337 321.267 119.888C307.99 148.589 290.594 176.309 270.108 203.178Z" fill="#3F3F49" stroke="#3F3F49" stroke-width="2" stroke-linejoin="round"/>
<path d="M220.77 190.599C215.336 195.277 206.949 195.867 199.727 191.256C194.302 184.931 193.718 177.334 197.984 170.688C206.382 154.576 219.176 141.399 234.514 129.906C239.237 124.629 248.152 124.484 255.474 129.209C261.09 135.819 262.03 144.577 257.308 149.854C245.003 169.81 232.822 183.379 220.778 190.637L220.77 190.599Z" fill="#3F3F49"/>
</g>
<defs>
<clipPath id="clip0_286_4">
<rect width="378.047" height="140.378" fill="white" transform="translate(16.5213 333.556) rotate(-49.8759)"/>
</clipPath>
</defs>
</svg>
