<svg width="361" height="237" viewBox="0 0 361 237" fill="none" xmlns="http://www.w3.org/2000/svg">
<g clip-path="url(#clip0_172_276)">
<path d="M261.933 154.135L262.112 154.612C289.761 142.638 315.415 128.64 338.271 112.089C345.774 108.551 348.316 100.584 345.183 91.7762L345.003 91.2999L339.377 75.4456L339.198 74.9693L329.412 47.4017L329.233 46.9254C326.128 38.1349 320.152 34.2875 310.955 35.2287C286.455 34.0558 257.056 38.9898 224.371 48.3642C164.299 65.5785 93.1763 97.7656 21.3602 134.248C14.4295 136.626 11.315 145.753 14.4486 154.561L24.4227 182.63L30.1995 198.943C33.3236 207.726 41.5469 213.017 48.4777 210.639C123.997 198.489 198.3 181.674 261.933 154.135Z" fill="#BADEFF"/>
<path d="M211.238 106.443L209.384 101.216C206.326 92.6087 209.047 85.1183 216.143 81.3332C229.729 72.4462 245.436 67.769 262.37 65.5203C269.144 63.2016 277.203 68.3544 280.261 76.9621L282.115 82.1884C285.173 90.796 282.129 99.7529 275.356 102.072C257.072 112.239 241.67 117.488 229.128 117.884C222.044 119.318 214.296 115.05 211.238 106.443Z" fill="black"/>
<path d="M41.3352 185.569C34.4045 187.947 26.171 182.688 23.0571 173.872L13.0923 145.828C9.96821 137.045 13.0732 127.894 20.004 125.516C91.8294 89.0581 162.952 56.871 223.024 39.6567C255.709 30.2822 285.128 25.3409 309.608 26.5211C318.805 25.58 324.772 29.4023 327.886 38.2179L337.851 66.2618C340.975 75.0449 338.413 83.0191 330.939 86.5743C308.084 103.126 282.449 117.117 254.78 129.097C191.157 156.661 116.854 173.476 41.325 185.601L41.3352 185.569Z" fill="#CAEF43"/>
<path d="M229.112 117.662C222.028 119.096 214.279 114.828 211.221 106.22L209.367 100.994C208.971 99.9408 208.712 98.8937 208.511 97.882C207.047 90.5919 209.906 84.423 216.127 81.1105C229.693 72.2309 245.4 67.5537 262.354 65.2976C268.332 63.2494 275.335 67.0253 278.974 73.8979C279.47 74.7988 279.897 75.7544 280.254 76.7645L282.108 81.9908C285.166 90.5984 282.122 99.5553 275.348 101.874C257.065 112.041 241.663 117.291 229.121 117.687L229.112 117.662Z" fill="#7CAD27"/>
<path d="M254.564 128.52L222.657 38.6213C255.342 29.2469 284.761 24.3055 309.241 25.4858C318.438 24.5446 324.405 28.3669 327.519 37.1825L337.634 65.685C340.758 74.4682 338.206 82.4674 330.722 85.9976C307.867 102.549 282.232 116.54 254.564 128.52Z" fill="#3F3F49" stroke="#3F3F49" stroke-width="2" stroke-linejoin="round"/>
<path d="M221.643 97.2066C215.372 98.4778 208.586 95.2785 204.974 88.5385C203.511 81.2485 206.37 75.0796 212.59 71.767C226.156 62.8874 241.863 58.2102 258.817 55.9542C264.796 53.9059 271.799 57.6818 275.438 64.5544C276.927 72.1498 273.838 79.3779 267.86 81.4262C249.576 91.5936 234.174 96.843 221.632 97.2391L221.643 97.2066Z" fill="#3F3F49"/>
</g>
<defs>
<clipPath id="clip0_172_276">
<rect width="337.352" height="125.267" fill="white" transform="translate(0.281738 119.398) rotate(-20.612)"/>
</clipPath>
</defs>
</svg>
