<svg width="252" height="403" viewBox="0 0 252 403" fill="none" xmlns="http://www.w3.org/2000/svg">
<g clip-path="url(#clip0_216_116)">
<path d="M213.858 154.94L214.4 155.117C223.325 122.553 229.081 90.3128 230.642 58.7282C232.812 49.6888 227.631 41.8801 217.735 38.4418L217.193 38.2644L199.389 32.0639L198.847 31.8865L167.889 21.1066L167.347 20.9292C157.486 17.4779 149.932 20.0033 144.305 28.7026C126.098 49.2941 109.793 78.4515 95.0649 113.594C67.9827 178.174 46.2384 262.912 27.7622 351.27C24.9801 358.995 30.7731 368.118 40.6696 371.556L72.1986 382.523L90.5084 388.914C100.376 392.343 110.768 388.866 113.551 381.14C155.892 306.61 193.303 229.872 213.858 154.94Z" fill="#BADEFF"/>
<path d="M136.619 165.805L130.751 163.76C121.083 160.396 116.444 152.765 118.112 143.907C119.872 125.8 126.799 108.791 136.71 92.4123C139.433 84.8656 149.589 81.4351 159.257 84.7986L165.125 86.8437C174.794 90.2073 180.488 99.1491 177.764 106.696C173.829 129.807 167.616 146.951 159.167 158.191C155.452 165.388 146.287 169.168 136.619 165.805Z" fill="black"/>
<path d="M86.6281 369.801C83.846 377.527 73.4751 381.035 63.586 377.575L32.0855 366.617C22.2175 363.188 16.396 354.056 19.1781 346.331C37.6828 257.983 59.4272 173.245 86.5093 108.665C101.237 73.5222 117.55 44.3424 135.749 23.7732C141.377 15.0739 148.902 12.5392 158.791 15.9998L190.292 26.9571C200.16 30.386 205.333 38.2171 203.199 47.2435C201.638 78.8281 195.889 111.046 186.957 143.632C166.431 218.574 129.019 295.312 86.6494 369.833L86.6281 369.801Z" fill="#349CFD"/>
<path d="M158.96 158.049C155.246 165.246 146.081 169.026 136.413 165.662L130.545 163.617C129.347 163.225 128.25 162.718 127.224 162.184C119.826 158.351 116.439 151.526 117.906 143.765C119.658 125.681 126.585 108.671 136.503 92.2702C138.906 85.6081 147.117 82.135 155.676 83.7743C156.812 83.9728 157.946 84.2699 159.08 84.6659L164.948 86.7109C174.616 90.0745 180.31 99.0163 177.587 106.563C173.651 129.674 167.438 146.818 158.989 158.058L158.96 158.049Z" fill="#012E57"/>
<path d="M186.301 143.418L85.3471 108.26C100.075 73.117 116.388 43.9371 134.587 23.368C140.215 14.6687 147.74 12.1339 157.629 15.5946L189.636 26.7423C199.504 30.1713 204.706 38.0117 202.543 47.0288C200.982 78.6133 195.233 110.831 186.301 143.418Z" fill="#3F3F49" stroke="#3F3F49" stroke-width="2" stroke-linejoin="round"/>
<path d="M135.843 150.232C132.557 156.605 125.001 160.293 116.577 158.723C109.179 154.89 105.792 148.064 107.259 140.304C109.011 122.219 115.938 105.21 125.856 88.809C128.259 82.147 136.47 78.6738 145.029 80.3132C152.712 84.3383 156.864 92.1069 154.462 98.769C150.527 121.88 144.313 139.024 135.864 150.264L135.843 150.232Z" fill="#3F3F49"/>
</g>
<defs>
<clipPath id="clip0_216_116">
<rect width="378.047" height="140.378" fill="white" transform="translate(0 359.279) rotate(-71.8705)"/>
</clipPath>
</defs>
</svg>
