<svg width="316" height="238" viewBox="0 0 316 238" fill="none" xmlns="http://www.w3.org/2000/svg">
<g clip-path="url(#clip0_172_277)">
<path d="M233.977 140.89L234.187 141.287C257.056 127.708 277.951 112.579 296.111 95.5284C302.285 91.591 303.618 84.3308 299.888 76.9692L299.678 76.5722L292.977 63.3203L292.767 62.9233L281.112 39.8808L280.902 39.4838C277.2 32.1344 271.536 29.4347 263.588 31.2884C242.006 33.0041 216.816 40.6155 189.247 52.4827C138.575 74.2804 79.9043 110.425 21.1069 150.409C15.3046 153.267 13.5993 161.606 17.329 168.968L29.2046 192.428L36.0889 206.065C39.8076 213.406 47.6002 217.118 53.4025 214.26C118.167 195.167 181.343 172.126 233.977 140.89Z" fill="#BADDF9"/>
<path d="M184.249 104.806L182.041 100.438C178.4 93.2431 179.944 86.38 185.734 82.2713C196.634 72.969 209.864 67.1153 224.44 63.2507C230.111 60.4621 237.744 64.0717 241.385 71.2662L243.594 75.6347C247.235 82.8292 245.572 91.0125 239.901 93.801C225.03 104.75 212.132 111.071 201.195 112.822C195.153 114.87 187.89 112.001 184.249 104.806Z" fill="black"/>
<path d="M44.3421 193.108C38.5398 195.966 30.7418 192.283 27.0284 184.913L15.1639 161.474C11.4452 154.133 13.1394 145.772 18.9418 142.914C77.7502 102.952 136.421 66.8068 187.093 45.0091C214.662 33.1419 239.868 25.5219 261.434 23.8149C269.382 21.9611 275.035 24.6399 278.748 32.0102L290.612 55.4497C294.331 62.7904 292.981 70.0593 286.835 74.0089C268.675 91.0598 247.796 106.18 224.911 119.767C172.289 151.025 109.112 174.066 44.3368 193.138L44.3421 193.108Z" fill="#FF218C"/>
<path d="M201.156 112.628C195.114 114.677 187.851 111.807 184.21 104.613L182.002 100.244C181.537 99.3666 181.193 98.4788 180.903 97.6155C178.806 91.3963 180.618 85.6747 185.694 82.078C196.578 72.7844 209.808 66.9306 224.4 63.0573C229.406 60.5946 235.96 63.1167 239.915 68.727C240.45 69.4604 240.931 70.2492 241.357 71.0937L243.565 75.4623C247.206 82.6567 245.544 90.84 239.873 93.6285C225.002 104.578 212.104 110.898 201.167 112.649L201.156 112.628Z" fill="#9C064E"/>
<path d="M224.657 119.286L186.656 44.1431C214.225 32.276 239.431 24.6559 260.997 22.9489C268.945 21.0952 274.597 23.774 278.311 31.1442L290.358 54.9685C294.077 62.3092 292.738 69.5989 286.58 73.5277C268.421 90.5786 247.542 105.699 224.657 119.286Z" fill="#3F3F49" stroke="#3F3F49" stroke-width="2" stroke-linejoin="round"/>
<path d="M192.326 95.5533C186.977 97.3683 180.677 95.3267 176.761 89.8295C174.663 83.6103 176.476 77.8888 181.552 74.292C192.436 64.9984 205.665 59.1447 220.258 55.2713C225.263 52.8086 231.817 55.3307 235.773 60.9411C237.927 67.4248 236.032 74.0994 231.026 76.5622C216.156 87.5115 203.257 93.832 192.32 95.5828L192.326 95.5533Z" fill="#3F3F49"/>
</g>
<defs>
<clipPath id="clip0_172_277">
<rect width="297.787" height="110.576" fill="white" transform="translate(0.988281 139.766) rotate(-27.898)"/>
</clipPath>
</defs>
</svg>
