<svg width="629" height="741" viewBox="0 0 629 741" fill="none" xmlns="http://www.w3.org/2000/svg">
<path fill-rule="evenodd" clip-rule="evenodd" d="M355.574 694.221L48.6121 220.983L279.961 87.6774L265.701 65.4755L282.012 56.4302L296.186 78.3286L308.879 71.0143L294.845 49.1943L311.213 40.1829L325.1 61.668L338.095 54.1798L323.791 31.894L340.113 22.8926L354.322 44.83L399.026 19.0708L705.988 492.308L355.574 694.221Z" fill="#BADEFF"/>
<path d="M45.743 239.143L334.37 712.752L668.259 507.99L379.632 34.3807L45.743 239.143Z" fill="#E9E9E9"/>
<path d="M252.775 81.7358L276.576 121.183L291.933 111.401L268.315 72.5593L252.775 81.7358Z" fill="#7CAD27"/>
<path d="M280.542 65.2195L304.396 104.7L319.7 94.8844L296.135 56.0768L280.542 65.2195Z" fill="#FF5656"/>
<path d="M308.127 47.681L331.937 87.1719L347.285 77.3459L323.676 38.5486L308.127 47.681Z" fill="#349CFD"/>
</svg>
