<svg width="941" height="920" viewBox="0 0 941 920" fill="none" xmlns="http://www.w3.org/2000/svg">
<path fill-rule="evenodd" clip-rule="evenodd" d="M181.888 391.894L628.65 216.126L709.733 421.868L730.673 413.736L736.089 428.188L715.42 436.297L719.869 447.586L740.451 439.578L745.83 454.071L725.554 462.011L730.108 473.568L751.126 465.413L756.502 479.867L735.795 487.999L751.463 527.755L304.701 703.523L181.888 391.894Z" fill="#BADEFF"/>
<path d="M709.727 408.539L672.549 422.965L678.502 437.353L715.138 422.994L709.727 408.539Z" fill="#7CAD27"/>
<path d="M719.497 434.384L682.281 448.85L688.272 463.197L724.871 448.879L719.497 434.384Z" fill="#FF5656"/>
<path d="M730.163 460.223L692.945 474.65L698.938 489.036L735.535 474.679L730.163 460.223Z" fill="#349CFD"/>
<path d="M607.769 210.896L160.95 386.518L283.661 698.187L730.48 522.565L607.769 210.896Z" fill="#E9E9E9"/>
</svg>
