<svg width="787" height="698" viewBox="0 0 787 698" fill="none" xmlns="http://www.w3.org/2000/svg">
<path fill-rule="evenodd" clip-rule="evenodd" d="M214.664 33.754L760.539 302.333L636.971 553.848L662.457 566.527L653.538 583.932L628.305 571.487L621.525 585.287L646.591 597.737L637.602 615.143L612.862 602.922L605.921 617.05L631.495 629.782L622.541 647.153L597.254 634.691L573.377 683.292L27.502 414.713L214.664 33.754Z" fill="#BADEFF"/>
<path d="M752.791 282.272L206.916 13.6934L19.7534 394.652L565.628 663.231L752.791 282.272Z" fill="#E9E9E9"/>
<path d="M654.709 546.466L609.464 523.958L601.07 541.815L645.79 563.871L654.709 546.466Z" fill="#7CAD27"/>
<path d="M638.842 577.677L593.527 555.169L585.203 573.025L629.853 595.082L638.842 577.677Z" fill="#FF5656"/>
<path d="M623.746 609.721L578.466 587.178L570.107 605.07L614.792 627.092L623.746 609.721Z" fill="#349CFD"/>
</svg>
