<svg width="343" height="552" viewBox="0 0 343 552" fill="none" xmlns="http://www.w3.org/2000/svg">
<path d="M268.289 30.2591L-78.6347 83.3853L-5.92492 546.237L340.999 493.111L268.289 30.2591Z" fill="#BADEFF"/>
<path d="M234.506 6.28653L-73.0516 53.3843L-0.341878 516.236L307.215 469.138L234.506 6.28653Z" fill="#7CAD27"/>
<path opacity="0.41" d="M267.542 387.984L11.8005 427.147L20.9663 485.494L276.708 446.331L267.542 387.984Z" fill="#4D4D4D"/>
<path d="M153.368 374.938L153.761 378.415C158.602 377.876 163.658 377.029 168.926 375.881C179.018 373.681 187.63 370.251 194.664 365.506C201.71 360.752 206.872 354.892 209.963 347.895C209.963 347.894 209.964 347.894 209.964 347.893L153.368 374.938ZM153.368 374.938L153.761 378.415C148.932 378.954 144.403 379.198 140.182 379.14C135.952 379.081 132.087 378.697 128.607 377.962L126.392 377.495L125.907 375.284L122.697 360.664L121.591 355.627L126.683 356.467C131.539 357.268 137.432 357.753 144.389 357.901C151.162 357.986 158.091 357.262 165.183 355.716C171.749 354.285 176.921 352.284 180.819 349.809C184.714 347.267 187.207 344.427 188.576 341.359L188.581 341.348C189.99 338.222 190.331 334.722 189.448 330.701C188.579 326.742 187.015 323.918 184.932 321.963L184.92 321.952L184.909 321.941C182.768 319.895 179.363 318.104 174.361 316.782L174.335 316.775L174.31 316.768C169.284 315.358 162.437 314.134 153.696 313.123M153.368 374.938L202.77 306.582C198.374 302.205 192.744 299.049 186.022 297.025C179.481 295.001 171.803 293.461 163.023 292.383C155.221 291.424 148.963 290.288 144.199 288.996C139.638 287.674 136.385 285.891 134.198 283.808C132.144 281.781 130.576 278.846 129.675 274.742C128.904 271.23 129.168 268.189 130.31 265.487C131.465 262.753 133.521 260.281 136.693 258.11L136.704 258.103L136.714 258.095C139.909 255.874 144.206 254.103 149.747 252.896C155.335 251.678 160.865 251.131 166.342 251.247L166.351 251.247C172.015 251.353 177.428 251.844 182.592 252.716L186.118 253.311L186.634 249.776L188.705 235.602L189.189 232.29L185.898 231.656C179.997 230.521 173.688 229.982 166.98 230.023C160.254 230.051 153.146 230.892 145.665 232.523C136.788 234.458 129.088 237.604 122.647 242.032C116.233 246.402 111.486 251.824 108.56 258.317L108.56 258.317L108.557 258.324C105.631 264.86 105.093 272.015 106.767 279.641C107.955 285.055 109.834 289.818 112.466 293.858L112.479 293.878L112.493 293.898C115.18 297.902 118.558 301.215 122.605 303.815C126.58 306.367 131.194 308.379 136.402 309.885L136.42 309.89L136.437 309.895C141.576 311.323 147.335 312.394 153.696 313.123M153.696 313.123C153.695 313.123 153.694 313.123 153.693 313.123L154.091 309.647L153.697 313.123C153.697 313.123 153.696 313.123 153.696 313.123ZM124.495 300.872C120.853 298.533 117.821 295.559 115.399 291.952L137.371 306.524C132.429 305.095 128.137 303.211 124.495 300.872Z" fill="white" stroke="white" stroke-width="7"/>
<path d="M152.299 213.455L152.299 213.45C153.573 200.111 152.541 185.917 149.24 170.883C144.771 150.525 137.309 133.523 126.781 119.97C116.307 106.285 103.121 96.7323 87.2605 91.3749C71.4456 85.9823 53.4304 85.5639 33.3105 89.9493C12.294 94.5302 -4.48674 102.572 -16.8587 114.204L-16.8641 114.209C-29.1072 125.786 -37.0363 139.996 -40.6346 156.769C-44.2179 173.472 -43.7789 191.806 -39.4056 211.726C-36.1074 226.749 -31.1937 240.085 -24.6389 251.707L-24.6347 251.715L-24.6305 251.722C-17.9727 263.341 -9.75395 272.846 0.039742 280.19L0.0456777 280.194L0.0516387 280.198C9.96838 287.543 21.3912 292.352 34.2754 294.646L34.2823 294.648C47.2893 296.926 61.6853 296.307 77.4314 292.875C92.7309 289.541 105.755 284.179 116.436 276.735C127.085 269.314 135.409 260.251 141.359 249.547C147.366 238.764 151.004 226.722 152.299 213.455ZM106.756 251.323L106.748 251.331C98.7576 259.522 87.2867 265.35 72.1144 268.657C57.041 271.942 44.1207 271.434 33.2314 267.346C22.3873 263.22 13.3768 255.968 6.18984 245.482C-1.03782 234.936 -6.44855 221.664 -9.97797 205.587C-13.5269 189.422 -14.1603 175.162 -11.9782 162.759C-9.73542 150.312 -4.48173 140.04 3.75231 131.842C11.9522 123.679 23.5389 117.87 38.7141 114.563C61.0872 109.686 78.5818 113.032 91.6598 124.072L91.6666 124.078L91.6735 124.084C105.015 135.185 114.494 152.797 119.87 177.285C123.401 193.366 124.091 207.673 122.03 220.248C119.983 232.742 114.88 243.066 106.756 251.323Z" fill="white" stroke="white" stroke-width="5"/>
</svg>
