<svg width="427" height="1002" viewBox="0 0 427 1002" fill="none" xmlns="http://www.w3.org/2000/svg">
<path d="M112.451 960.726V967.176L118.327 969.836C128.715 974.539 140.576 978.412 153.834 981.514C167.068 984.611 181.487 986.963 197.072 988.593C212.689 990.226 229.2 991.036 246.596 991.036C279.878 991.036 309.295 986.119 334.619 975.984C359.984 965.833 380.135 950.925 394.576 931.068C409.374 910.804 416.564 886.565 416.564 858.876C416.564 834.426 411.443 813.38 400.457 796.412C389.751 779.68 374.335 765.89 354.656 754.887C335.481 743.969 312.372 733.789 285.434 724.297C261.42 715.833 242.378 707.864 228.148 700.417C214.531 692.986 205.293 684.935 199.669 676.555C194.404 668.41 191.436 657.705 191.436 643.825C191.436 631.869 194.449 622.093 200.116 614.034C205.839 605.894 214.268 599.32 225.978 594.543L226.012 594.529L226.045 594.515C237.875 589.586 252.851 586.921 271.302 586.921C289.893 586.921 307.838 589.024 325.157 593.212L325.169 593.215L325.182 593.218C343.056 597.491 359.872 602.82 375.642 609.191L385.148 613.031L388.751 603.433L405.118 559.826L408.467 550.902L399.715 547.129C381.952 539.47 362.479 533.411 341.333 528.911C320.166 524.362 297.221 522.119 272.537 522.119C243.287 522.119 216.951 526.764 193.717 536.3C170.614 545.667 152.068 559.471 138.495 577.85L138.488 577.859L138.481 577.868C124.905 596.34 118.319 618.401 118.319 643.527C118.319 661.414 120.929 677.675 126.37 692.147L126.394 692.211L126.419 692.274C132.061 706.68 140.326 719.388 151.177 730.319L157.632 723.911L151.177 730.319C161.855 741.077 174.924 750.592 190.239 758.937L190.285 758.962L190.332 758.987C205.503 767.047 222.885 774.414 242.424 781.119C269.36 790.396 290.21 799.056 305.19 807.063L305.258 807.099L305.326 807.134C320.317 814.854 330.046 823.036 335.563 831.283L335.588 831.321L335.614 831.359C341.029 839.294 344.065 849.65 344.065 863.057C344.065 876.72 340.482 887.914 333.668 897.14L333.658 897.154L333.648 897.168C327.004 906.229 316.925 913.661 302.683 919.107C288.472 924.342 270.591 927.13 248.758 927.13C225.195 927.13 202.708 924.622 181.275 919.635C159.363 914.335 141.023 908.696 126.163 902.756L112.451 897.274V912.041V960.726Z" fill="white" stroke="white" stroke-width="20"/>
<path d="M301.178 464.747L301.18 464.742C314.219 423.899 320.722 378.699 320.722 329.165C320.722 262.058 309.08 203.756 285.704 154.331C262.616 104.585 228.409 65.9748 183.1 38.5705C138.051 11.1414 82.6165 -2.5 16.9259 -2.5C-51.7608 -2.5 -109.155 11.2809 -155.115 39.0049L-155.121 39.0087C-200.735 66.7075 -234.799 105.472 -257.287 155.236C-279.745 204.936 -290.936 262.641 -290.936 328.289C-290.936 377.813 -284.736 423.002 -272.307 463.835L-272.304 463.843L-272.302 463.851C-259.563 504.703 -240.587 539.883 -215.349 569.348L-215.344 569.354L-215.339 569.359C-189.773 598.852 -157.827 621.542 -119.548 637.439L-119.542 637.442C-80.9319 653.35 -35.8755 661.267 15.5707 661.267C65.5209 661.267 109.527 653.347 147.534 637.436C185.506 621.541 217.296 599 242.859 569.806C268.701 540.346 288.134 505.313 301.178 464.747ZM139.774 559.943L139.766 559.948C107.762 581.198 66.4244 591.922 15.5707 591.922C-34.9736 591.922 -76.4719 581.201 -109.089 559.94C-141.448 538.65 -165.53 508.433 -181.317 469.177C-197.132 429.855 -205.078 383.205 -205.078 329.165C-205.078 274.831 -197.131 228.334 -181.324 189.606C-165.24 150.645 -140.863 120.716 -108.203 99.7141C-75.5849 78.7384 -33.931 68.1579 16.9259 68.1579C91.9791 68.1579 146.69 91.311 181.621 137.207L181.626 137.214L181.631 137.221C217.016 183.034 234.864 246.914 234.864 329.165C234.864 383.21 227.067 429.866 211.549 469.193C196.062 508.443 172.132 538.656 139.774 559.943Z" fill="white" stroke="white" stroke-width="5"/>
</svg>
