<svg width="297" height="342" viewBox="0 0 297 342" fill="none" xmlns="http://www.w3.org/2000/svg">
<path d="M15.9148 285.657L24.8489 275.2L50.6422 297.689L20.2371 333.191C5.96709 320.773 4.03855 299.435 15.9148 285.657Z" fill="#BADEFF"/>
<path d="M20.2371 333.191L50.6405 297.788L76.4826 320.33L67.4996 330.735C61.5615 337.624 53.3382 341.344 44.8217 341.809C36.3051 342.273 27.3469 339.424 20.2371 333.191Z" fill="#BADEFF"/>
<path d="M24.8473 275.299L34.9997 263.416L51.329 277.646L60.8418 285.958L50.6405 297.788L24.8473 275.299Z" fill="#BADEFF"/>
<path d="M50.6405 297.788L60.8418 285.958L71.3843 295.176L86.6351 308.447L76.4826 320.33L50.6405 297.788Z" fill="#BADEFF"/>
<path d="M262.803 24.3174L296.766 10.8923L275.651 35.5094L262.803 24.3174Z" fill="#BADEFF"/>
<path d="M275.651 35.5094L296.766 10.8923L288.498 46.7014L275.651 35.5094Z" fill="#BADEFF"/>
<path d="M275.651 35.5094L288.532 46.7376L280.338 82.626L265.111 69.4815L254.492 60.1813L275.651 35.5094Z" fill="#BADEFF"/>
<path d="M245.021 51.9138L228.691 37.6843L262.803 24.3174L275.651 35.5094L254.485 60.1735L245.021 51.9138Z" fill="#BADEFF"/>
<path d="M34.9997 263.416L228.641 37.7312L228.691 37.6843L245.021 51.9138L51.329 277.646L34.9997 263.416Z" fill="#BADEFF"/>
<path d="M60.8418 285.958L51.329 277.646L245.021 51.9138L254.485 60.1735L265.232 69.5151L71.3843 295.176L60.8418 285.958Z" fill="#BADEFF"/>
<path d="M86.3275 308.45L70.9298 294.766L265.232 69.5151L280.264 82.5458L86.3275 308.45Z" fill="#BADEFF"/>
<path d="M8.73865 275.297L17.6728 264.84L43.466 287.329L13.061 322.832C-1.20906 310.413 -3.1376 289.076 8.73865 275.297Z" fill="#FF85A2"/>
<path d="M13.061 322.832L43.4644 287.429L69.3065 309.971L60.3235 320.375C54.3853 327.264 46.1621 330.985 37.6455 331.449C29.1289 331.914 20.1707 329.064 13.061 322.832Z" fill="#FD9DB4"/>
<path d="M17.6711 264.94L27.8236 253.057L44.1529 267.286L53.6657 275.598L43.4644 287.429L17.6711 264.94Z" fill="#8FA3AD"/>
<path d="M43.4644 287.429L53.6657 275.598L64.2081 284.816L79.4589 298.088L69.3065 309.971L43.4644 287.429Z" fill="#8FA3AD"/>
<path d="M255.627 13.9579L289.59 0.532877L268.474 25.1499L255.627 13.9579Z" fill="black"/>
<path d="M268.474 25.1499L289.59 0.532877L281.322 36.342L268.474 25.1499Z" fill="#1A1A1A"/>
<path d="M268.474 25.1499L281.356 36.3781L273.162 72.2665L257.935 59.122L247.316 49.8219L268.474 25.1499Z" fill="#FEEBB2"/>
<path d="M237.845 41.5543L221.515 27.3248L255.627 13.9579L268.474 25.1499L247.309 49.814L237.845 41.5543Z" fill="#FFE082"/>
<path d="M27.8236 253.057L221.465 27.3717L221.515 27.3248L237.845 41.5543L44.1529 267.286L27.8236 253.057Z" fill="#FE8E00"/>
<path d="M53.6657 275.598L44.1529 267.286L237.845 41.5543L247.309 49.814L258.056 59.1557L64.2081 284.816L53.6657 275.598Z" fill="#FEB200"/>
<path d="M79.1514 298.09L63.7537 284.406L258.056 59.1557L273.088 72.1863L79.1514 298.09Z" fill="#FEC928"/>
</svg>
