<svg width="244" height="455" viewBox="0 0 244 455" fill="none" xmlns="http://www.w3.org/2000/svg">
<path d="M15.4221 399.932L22.0272 385.625L57.457 402.416L34.9517 451.012C15.3576 441.748 6.60399 418.816 15.4221 399.932Z" fill="#BADEFF"/>
<path d="M34.9517 451.012L57.4861 402.526L92.9861 419.36L86.3107 433.624C81.9017 443.066 73.9883 449.723 64.7404 452.88C55.4924 456.038 44.7282 455.677 34.9517 451.012Z" fill="#BADEFF"/>
<path d="M22.0563 385.736L29.5621 369.478L51.9896 380.099L65.0621 386.311L57.4861 402.526L22.0563 385.736Z" fill="#BADEFF"/>
<path d="M57.4861 402.526L65.0621 386.311L79.5512 393.203L100.492 403.102L92.9861 419.36L57.4861 402.526Z" fill="#BADEFF"/>
<path d="M206.531 35.0459L239.816 9.69252L224.175 43.3985L206.531 35.0459Z" fill="#BADEFF"/>
<path d="M224.175 43.3985L239.816 9.69252L241.82 51.7512L224.175 43.3985Z" fill="#BADEFF"/>
<path d="M224.175 43.3985L241.868 51.7806L243.978 93.9039L223.103 84.1369L208.503 77.1785L224.175 43.3985Z" fill="#BADEFF"/>
<path d="M195.491 71.0024L173.063 60.3812L206.531 35.0459L224.175 43.3985L208.493 77.1721L195.491 71.0024Z" fill="#BADEFF"/>
<path d="M29.5621 369.478L173.022 60.4486L173.063 60.3812L195.491 71.0024L51.9896 380.099L29.5621 369.478Z" fill="#BADEFF"/>
<path d="M65.0621 386.311L51.9896 380.099L195.491 71.0024L208.493 77.1721L223.247 84.1364L79.5512 393.203L65.0621 386.311Z" fill="#BADEFF"/>
<path d="M100.154 403.201L78.9227 392.892L223.247 84.1364L243.871 93.8385L100.154 403.201Z" fill="#BADEFF"/>
<path d="M4.29075 390.736L10.8958 376.429L46.3256 393.22L23.8204 441.816C4.22621 432.552 -4.52736 409.62 4.29075 390.736Z" fill="#FF85A2"/>
<path d="M23.8204 441.816L46.3547 393.331L81.8547 410.164L75.1794 424.428C70.7703 433.87 62.857 440.527 53.609 443.684C44.361 446.842 33.5968 446.482 23.8204 441.816Z" fill="#FD9DB4"/>
<path d="M10.9249 376.54L18.4307 360.282L40.8583 370.903L53.9307 377.116L46.3547 393.331L10.9249 376.54Z" fill="#8FA3AD"/>
<path d="M46.3547 393.331L53.9307 377.116L68.4199 384.007L89.3605 393.906L81.8547 410.164L46.3547 393.331Z" fill="#8FA3AD"/>
<path d="M195.399 25.85L228.685 0.496615L213.044 34.2026L195.399 25.85Z" fill="black"/>
<path d="M213.044 34.2026L228.685 0.496615L230.689 42.5553L213.044 34.2026Z" fill="#1A1A1A"/>
<path d="M213.044 34.2026L230.737 42.5847L232.846 84.708L211.971 74.941L197.372 67.9826L213.044 34.2026Z" fill="#FEEBB2"/>
<path d="M184.359 61.8064L161.932 51.1853L195.399 25.85L213.044 34.2026L197.362 67.9762L184.359 61.8064Z" fill="#FFE082"/>
<path d="M18.4307 360.282L161.891 51.2527L161.932 51.1853L184.359 61.8064L40.8583 370.903L18.4307 360.282Z" fill="#FE8E00"/>
<path d="M53.9307 377.116L40.8583 370.903L184.359 61.8064L197.362 67.9762L212.115 74.9405L68.4199 384.007L53.9307 377.116Z" fill="#FEB200"/>
<path d="M89.0222 394.005L67.7914 383.696L212.115 74.9405L232.739 84.6426L89.0222 394.005Z" fill="#FEC928"/>
</svg>
