<svg width="1360" height="590" viewBox="0 0 1360 590" fill="none" xmlns="http://www.w3.org/2000/svg">
<path d="M1255.36 21.9502H1175C1175 23.0916 1175.11 24.2827 1175.11 25.4241V97.4344C1175.11 145.921 1128.69 185.226 1071.42 185.226H283.24C225.97 185.226 179.545 145.921 179.545 97.4344V25.4241C179.545 24.2331 179.545 23.0916 179.662 21.9502H119.695C62.4256 21.9502 16 61.2556 16 109.742V501.307C16 549.794 62.4256 589.099 119.695 589.099H1255.36C1312.63 589.099 1359.06 549.794 1359.06 501.307V109.742C1359.06 61.2556 1312.63 21.9502 1255.36 21.9502Z" fill="#BADDF9"/>
<path d="M1239.36 0.950195H1159C1159 2.09164 1159.11 3.2827 1159.11 4.42414V76.4344C1159.11 124.921 1112.69 164.226 1055.42 164.226H267.24C209.97 164.226 163.545 124.921 163.545 76.4344V4.42414C163.545 3.23307 163.545 2.09164 163.662 0.950195H103.695C46.4256 0.950195 0 40.2556 0 88.7421V480.307C0 528.794 46.4256 568.099 103.695 568.099H1239.36C1296.63 568.099 1343.06 528.794 1343.06 480.307V88.7421C1343.06 40.2556 1296.63 0.950195 1239.36 0.950195Z" fill="#E9E9E9"/>
<path d="M1198.51 419.009H144.611V491.069H1198.51V419.009Z" fill="#414141"/>
<path d="M163.545 75.4843C163.545 123.971 209.97 163.276 267.24 163.276H1055.42C1112.69 163.276 1159.11 123.971 1159.11 75.4843V3.47398C1159.11 2.28291 1159.11 1.14144 1159 0H163.662C163.662 1.14144 163.545 2.33254 163.545 3.47398V75.4843Z" fill="#B1B1B0"/>
<path d="M1265.74 108.884C1265.74 101.539 1258.71 95.5835 1250.03 95.5835C1241.36 95.5835 1234.32 101.539 1234.32 108.884C1234.32 116.229 1241.36 122.184 1250.03 122.184C1258.71 122.184 1265.74 116.229 1265.74 108.884Z" fill="#C41010"/>
</svg>
