<svg width="1159" height="1065" viewBox="0 0 1159 1065" fill="none" xmlns="http://www.w3.org/2000/svg">
<path fill-rule="evenodd" clip-rule="evenodd" d="M840.722 151.1C849.453 136.857 863.67 126.932 879.925 123.734L880.935 123.535C894.592 120.848 908.727 122.911 921.038 129.387L926.457 132.238C934.49 136.464 941.711 142.044 947.824 148.712C948.379 149.229 948.894 149.805 949.36 150.437C951.442 152.845 953.384 155.386 955.173 158.046L974.142 186.253L992.924 188.214L983.507 174.212C979.654 168.483 981.139 160.663 986.823 156.746C992.508 152.828 1000.24 154.296 1004.09 160.025L1025.32 191.598L1115.35 201L1102.06 305.697L1104.68 309.599C1113.61 322.881 1119.56 337.986 1122.1 353.859L1123.96 365.464C1127.14 385.288 1122.84 405.628 1111.91 422.463L1111.15 423.637C1104.19 434.356 1094.78 443.056 1083.85 449.092L1016.32 981.045L987.511 1027.58L66.8391 921.564L186.027 103.943L832.859 171.497C834.21 164.328 836.856 157.407 840.722 151.1ZM929.751 166.055L941.008 182.792L857.725 174.094C858.584 170.653 859.966 167.337 861.845 164.272C866.908 156.012 875.152 150.257 884.579 148.403L885.588 148.204C893.726 146.603 902.149 147.832 909.484 151.691L914.903 154.542C920.498 157.485 925.518 161.386 929.751 166.055ZM1090.38 409.912C1089.77 410.844 1089.14 411.754 1088.48 412.64L1096.25 351.449C1096.77 353.604 1097.2 355.782 1097.56 357.98L1099.42 369.584C1101.6 383.202 1098.65 397.174 1091.14 408.738L1090.38 409.912L1100.76 416.774L1090.38 409.912Z" fill="#BADEFF"/>
<path d="M971.519 168.303L1072.1 317.961C1080.02 329.738 1085.29 343.132 1087.54 357.207L1089.4 368.823C1092.08 385.552 1088.45 402.716 1079.23 416.924L1078.47 418.099C1069.14 432.476 1054.54 442.517 1037.91 445.993V445.993C1020.93 449.54 1003.28 445.944 989.044 436.035L978.473 428.679C968.942 422.046 960.716 413.679 954.213 404.003L834.101 225.289C828.55 217.029 824.919 207.602 823.478 197.708L822.462 190.739C820.852 179.686 823.169 168.397 829.003 158.875V158.875C835.901 147.616 847.133 139.771 859.974 137.242L860.984 137.043C871.881 134.897 883.159 136.543 892.981 141.712L898.402 144.566C908.127 149.684 916.439 157.159 922.6 166.325L1017.35 307.302C1022.86 315.504 1025.76 325.223 1025.65 335.16L1025.61 338.787C1025.56 343.121 1024.61 347.446 1022.85 351.405V351.405C1018.25 361.754 1008.4 368.904 997.234 369.871V369.871C991.811 370.34 986.369 369.347 981.461 366.993L978.163 365.411C971.079 362.013 965.023 356.767 960.617 350.212L891.491 247.359" stroke="#414141" stroke-width="25" stroke-linecap="round"/>
<path d="M162.601 99.7836L1091.89 197.133L993.34 990.824L64.0637 893.475L162.601 99.7836Z" fill="#E9E9E9"/>
<path d="M917.102 159.159L1021.23 314.099C1026.75 322.301 1029.64 332.02 1029.53 341.957L1029.49 345.585C1029.45 349.918 1028.49 354.243 1026.73 358.202V358.202C1022.13 368.551 1012.29 375.701 1001.12 376.668V376.668C995.698 377.137 990.255 376.144 985.348 373.79L982.05 372.209C974.965 368.81 968.909 363.565 964.503 357.009L895.377 254.156" stroke="#414141" stroke-width="25" stroke-linecap="round"/>
<path d="M957.167 516.833C953.306 553.659 925.958 580.974 896.083 577.842C866.207 574.71 845.118 542.318 848.978 505.491C852.839 468.665 880.187 441.35 910.063 444.482C939.938 447.614 961.027 480.007 957.167 516.833Z" fill="#C41010"/>
<path d="M986.45 516.972C985.023 530.581 982.033 542.806 977.478 553.645C972.932 564.404 966.776 573.447 959.009 580.775C951.322 588.111 941.979 593.4 930.978 596.643C919.985 599.806 907.284 600.632 892.875 599.122C878.466 597.611 866.213 594.169 856.115 588.795C846.026 583.341 837.942 576.225 831.863 567.446C825.865 558.676 821.762 548.516 819.555 536.968C817.348 525.42 816.961 512.8 818.397 499.11C820.313 480.83 824.959 465.237 832.334 452.332C839.798 439.355 850.161 429.776 863.423 423.595C876.685 417.413 892.936 415.331 912.175 417.348C931.333 419.356 946.678 424.751 958.209 433.531C969.82 442.32 977.891 453.832 982.421 468.066C987.032 482.309 988.375 498.61 986.45 516.972ZM857.614 503.466C856.322 515.787 856.737 526.577 858.859 535.837C861.07 545.024 865.222 552.38 871.317 557.904C877.419 563.347 885.703 566.617 896.168 567.714C906.793 568.828 915.656 567.356 922.754 563.296C929.862 559.156 935.369 552.813 939.276 544.267C943.272 535.649 945.916 525.179 947.207 512.858C949.149 494.336 947.216 479.397 941.407 468.041C935.599 456.685 924.766 450.176 908.908 448.513C898.363 447.408 889.496 448.921 882.308 453.052C875.209 457.112 869.622 463.446 865.545 472.056C861.558 480.594 858.914 491.064 857.614 503.466Z" fill="black"/>
<path d="M894.45 571.074C894.793 571.507 895.422 571.579 895.855 571.236L902.906 565.642C903.339 565.299 903.411 564.67 903.068 564.237C902.725 563.805 902.096 563.732 901.663 564.076L895.396 569.047L890.424 562.78C890.08 562.347 889.451 562.275 889.019 562.618C888.586 562.961 888.513 563.59 888.857 564.023L894.45 571.074ZM910.255 446.294C909.912 445.862 909.283 445.789 908.85 446.132L901.8 451.726C901.367 452.069 901.294 452.698 901.638 453.131C901.981 453.563 902.61 453.636 903.043 453.293L909.31 448.321L914.282 454.588C914.625 455.021 915.254 455.093 915.687 454.75C916.119 454.407 916.192 453.778 915.849 453.345L910.255 446.294ZM896.227 570.567L910.465 447.03L908.478 446.801L894.24 570.338L896.227 570.567Z" fill="white"/>
<path d="M791.176 564.137C788.493 589.738 765.563 608.316 739.963 605.633C714.362 602.949 695.784 580.02 698.467 554.419C701.151 528.818 724.08 510.24 749.681 512.924C775.282 515.607 793.86 538.537 791.176 564.137Z" fill="#C41010"/>
<path d="M764.904 493.535C779.171 495.031 789.766 501.92 796.687 514.203C803.617 526.41 805.959 543.226 803.713 564.65C802.181 579.261 798.843 591.348 793.697 600.912C788.559 610.4 782.158 617.306 774.493 621.63C766.911 625.887 758.605 627.542 749.574 626.595C743.503 625.959 738.422 624.661 734.331 622.701C730.315 620.749 727.023 618.491 724.453 615.925C721.959 613.368 719.887 610.816 718.235 608.27L716.869 608.127C716.939 611.119 716.91 614.331 716.78 617.761C716.727 621.2 716.462 625.19 715.986 629.733L711.057 676.745L666.548 672.079L685.893 487.549L722.092 491.344L726.638 508.352L728.687 508.567C731.162 505.459 734.063 502.663 737.392 500.18C740.73 497.622 744.648 495.736 749.149 494.524C753.733 493.245 758.984 492.915 764.904 493.535ZM744.516 526.643C740.19 526.19 736.668 526.854 733.949 528.635C731.23 530.417 729.084 533.33 727.509 537.374C726.018 541.351 724.875 546.397 724.08 552.514L723.711 556.034C722.997 562.847 722.925 568.657 723.496 573.462C724.074 578.191 725.526 581.902 727.853 584.595C730.187 587.213 733.631 588.76 738.184 589.237C741.903 589.627 745.125 588.893 747.852 587.036C750.578 585.179 752.829 582.009 754.603 577.526C756.377 573.044 757.661 567.017 758.455 559.446C759.637 548.166 758.995 540.024 756.527 535.02C754.135 530.024 750.131 527.232 744.516 526.643Z" fill="black"/>
<path d="M737.659 590.176C738.011 590.602 738.642 590.66 739.067 590.308L745.995 584.564C746.42 584.211 746.479 583.581 746.127 583.155C745.774 582.73 745.144 582.671 744.719 583.024L738.56 588.13L733.454 581.971C733.102 581.546 732.471 581.487 732.046 581.84C731.621 582.192 731.562 582.823 731.914 583.248L737.659 590.176ZM745.232 524.315C744.88 523.89 744.249 523.831 743.824 524.184L736.896 529.928C736.471 530.281 736.412 530.911 736.764 531.336C737.117 531.761 737.747 531.82 738.172 531.468L744.331 526.362L749.437 532.52C749.79 532.945 750.42 533.004 750.845 532.652C751.27 532.299 751.329 531.669 750.977 531.244L745.232 524.315ZM739.424 589.631L745.458 525.047L743.467 524.86L737.433 589.445L739.424 589.631Z" fill="white"/>
</svg>
