<svg width="1063" height="1570" viewBox="0 0 1063 1570" fill="none" xmlns="http://www.w3.org/2000/svg">
<path fill-rule="evenodd" clip-rule="evenodd" d="M-524.833 633.769L128.148 1552.84C140.943 1570.85 165.915 1575.07 183.924 1562.28L1046.17 949.672C1064.17 936.877 1068.4 911.905 1055.61 893.896L872.412 636.051C868.182 630.097 862.402 625.415 855.701 622.513L747.475 575.641C740.773 572.738 734.994 568.056 730.764 562.103L343.408 16.9004C330.613 -1.10842 305.641 -5.33511 287.633 7.45979L-515.392 577.994C-533.401 590.789 -537.628 615.76 -524.833 633.769ZM739.241 1083.37L829.794 1019.04C847.803 1006.24 852.03 981.269 839.235 963.26L266.085 156.554C253.29 138.545 228.319 134.319 210.31 147.113L174.804 172.34L335.51 398.534C340.255 405.212 342.835 413.186 342.901 421.378L343.65 514.136C343.716 522.328 346.296 530.302 351.041 536.98L739.241 1083.37Z" fill="#C41010"/>
</svg>
