<svg width="1333" height="1207" viewBox="0 0 1333 1207" fill="none" xmlns="http://www.w3.org/2000/svg">
<path d="M978.711 47.6791L307.864 319.379L661.401 1194.72L1332.25 923.017L978.711 47.6791Z" fill="#BADEFF"/>
<path d="M934.222 79.348L313.694 330.668L662.659 1194.69L1283.19 943.368L934.222 79.348Z" fill="#FEC007"/>
<path d="M934.222 79.348L313.694 330.668L662.659 1194.69L1283.19 943.368L934.222 79.348Z" fill="#FE6F00"/>
<path d="M854.448 41.8579L233.92 293.178L582.886 1157.2L1203.41 905.878L854.448 41.8579Z" fill="white"/>
<path d="M609.911 0L0 392.074L506.6 1206.11L1116.51 814.04L609.911 0Z" fill="#E3F1FC"/>
<path d="M763.632 13.6113L1166.33 849.169L572.66 1138.96L563.344 1119.62L1134.37 841.028L740.956 24.7183L763.632 13.6113Z" fill="#E3F1FC"/>
<path d="M741.506 19.5808L1150.19 837.073L553.398 1125.6L546.56 1111.71L1099.51 837.072L709.943 35.8051L741.506 19.5808Z" fill="#BADDF9"/>
<path d="M264.506 224.58L183.46 456L516.006 1132.58L1117.01 840.58L708.006 6.58039L264.506 224.58Z" fill="white"/>
<path d="M200.951 294.17C203.642 295.252 205.638 297.179 206.671 299.607C207.831 301.988 207.979 304.74 207.021 307.602L189.719 356.63C187.912 361.871 182.162 364.569 176.877 362.666C174.186 361.584 172.237 359.788 171.156 357.23C170.044 354.978 169.848 352.096 170.854 349.364L187.983 300.252C189.789 295.011 195.666 292.267 200.951 294.17Z" fill="#FE6F00"/>
<path d="M264.542 224.581L183.568 456.232L110.029 296.755L264.542 224.581ZM179.498 358.198C184.139 359.952 189.355 357.642 191.051 352.768L206.616 308.661C207.521 306.204 207.231 303.652 206.302 301.468C205.259 299.326 203.576 297.551 201.156 296.578C196.515 294.824 191.228 297.293 189.489 302.049L174.08 346.231C173.132 348.572 173.465 351.24 174.352 353.307C175.438 355.567 177.077 357.225 179.498 358.198Z" fill="#FEC007"/>
<path d="M788.206 533.756C790.662 632.538 712.574 714.609 613.791 717.065C515.009 719.521 432.938 641.432 430.482 542.65C428.026 443.867 506.114 361.797 604.897 359.341C703.68 356.885 785.75 434.973 788.206 533.756Z" fill="#FEC928"/>
<path d="M788.206 533.756C789.25 575.757 775.48 616.786 749.309 649.653C723.138 682.52 686.235 705.129 645.067 713.517C603.899 721.906 561.092 715.539 524.147 695.533C487.202 675.526 458.476 643.157 443.003 604.096L609.344 538.203L788.206 533.756Z" fill="#FE6F00"/>
<path d="M753.515 432.25C778.88 466.764 791.021 509.231 787.733 551.936C784.445 594.641 765.947 634.75 735.599 664.974L609.344 538.203L753.515 432.25Z" fill="#7CAD27"/>
<path d="M720.262 397.816C751.533 422.523 773.66 456.963 783.133 495.674L609.344 538.203L720.262 397.816Z" fill="#FF218C"/>
<path d="M452.824 624.881C442.548 606.324 435.654 586.088 432.463 565.118L609.344 538.203L452.824 624.881Z" fill="#349CFD"/>
</svg>
