<svg width="410" height="398" viewBox="0 0 410 398" fill="none" xmlns="http://www.w3.org/2000/svg">
<rect x="53.9951" y="87.3784" width="276.295" height="254.014" transform="rotate(-6.14752 53.9951 87.3784)" fill="#FFF964"/>
<path d="M275.483 291.844L248.899 238.638L172.257 248.246L159.63 306.369L124.943 310.717L174.295 100.098L210.764 95.5258L310.445 287.461L275.483 291.844ZM236.857 211.46L210.924 159.008C209.895 156.723 208.426 153.519 206.516 149.395C204.595 145.179 202.668 140.918 200.736 136.611C198.792 132.213 197.168 128.517 195.864 125.524C195.42 129.386 194.805 133.734 194.018 138.567C193.311 143.298 192.57 147.754 191.795 151.936C191.111 156.107 190.586 159.329 190.222 161.603L177.903 218.851L236.857 211.46Z" fill="black"/>
</svg>
