<svg width="761" height="1048" viewBox="0 0 761 1048" fill="none" xmlns="http://www.w3.org/2000/svg">
<path d="M0.564453 20C0.564453 8.95431 9.51876 0 20.5645 0L740.564 0C751.61 0 760.564 8.9543 760.564 20V1028C760.564 1039.05 751.61 1048 740.564 1048H20.5645C9.51877 1048 0.564453 1039.05 0.564453 1028L0.564453 20Z" fill="#349CFD"/>
<path d="M47.3337 89.1696C47.3337 78.1239 56.288 69.1696 67.3337 69.1696L693.795 69.1696C704.841 69.1696 713.795 78.1239 713.795 89.1696V970.895C713.795 981.94 704.841 990.895 693.795 990.895H67.3337C56.288 990.895 47.3337 981.94 47.3337 970.895L47.3337 89.1696Z" fill="white"/>
<path d="M117.488 53.7805C117.488 42.7348 126.442 33.7805 137.488 33.7805L622.806 33.7805C633.852 33.7805 642.806 42.7348 642.806 53.7805V77.32C642.806 88.3657 633.852 97.32 622.806 97.32H137.488C126.442 97.32 117.488 88.3657 117.488 77.32V53.7805Z" fill="#494949"/>
</svg>
